<svg xmlns="http://www.w3.org/2000/svg" width="960" height="540" viewBox="0,0,960,540"><svg viewBox="0,0,200,150" x="180" y="45" height="450" width="600"><svg width="200" viewBox="0,0,200,100"><polygon stroke-linejoin="round" style="fill: transparent;" stroke="currentColor" stroke-width="4" points="10,10,140,10,190,33.333333333333336,140,50,190,66.66666666666667,140,90,10,90,60,50"></polygon><line stroke="currentColor" stroke-width="4" x1="0" y1="50" x2="60" y2="50"></line><line stroke="currentColor" stroke-width="4" x1="190" y1="33.333333333333336" x2="200" y2="33.333333333333336"></line><line stroke="currentColor" stroke-width="4" x1="190" y1="66.66666666666667" x2="200" y2="66.66666666666667"></line><svg height="16.666666666666668" width="33.333333333333336" x="135" y="22.5" viewBox="0,0,24,24" stroke-width="3" stroke="currentColor" fill="none"><path stroke-linecap="round" stroke-linejoin="round" d="m4.5,12.75,6,6,9-13.5"></path></svg><svg height="16.666666666666668" width="33.333333333333336" x="135" y="60" viewBox="0,0,24,24" stroke-width="3" stroke="currentColor" fill="none"><path stroke-linecap="round" stroke-linejoin="round" d="M6,18,18,6M6,6l12,12"></path></svg></svg><text stroke="currentColor" x="0" y="15" font-size="1rem">AUTHORIZE</text><svg height="55" width="80" x="60" y="47.5" viewBox="0,0,24,24" stroke-width="1.5" stroke="currentColor" fill="none"><path stroke-linecap="round" stroke-linejoin="round" d="M18.364,18.364A9,9,0,0,0,5.636,5.636m12.728,12.728A9,9,0,0,1,5.636,5.636m12.728,12.728L5.636,5.636"></path></svg></svg></svg>