<svg xmlns="http://www.w3.org/2000/svg" width="960" height="540" viewBox="0,0,960,540"><svg viewBox="0,0,200,150" x="180" y="45" height="450" width="600"><svg width="200" viewBox="0,0,200,100"><polygon stroke-linejoin="round" style="fill: transparent;" stroke="currentColor" stroke-width="4" points="10,10,140,10,190,50,140,90,10,90,60,50"></polygon><line stroke="currentColor" stroke-width="4" x1="0" y1="50" x2="60" y2="50"></line><line stroke="currentColor" stroke-width="4" x1="190" y1="50" x2="200" y2="50"></line></svg><text stroke="currentColor" x="0" y="15" font-size="1rem">DISTRIBUTION</text><svg height="55" width="80" x="60" y="47.5" viewBox="0,0,24,24" stroke-width="1.5" stroke="currentColor" fill="none"><path stroke-linecap="round" stroke-linejoin="round" d="M 5 4,H 19,V 10,H 5,V 4,M 12 10,V 14,M 5 12,H 19,M 5 12,V 14,M 19 12,V 14,M 3 14,H 7,V 18,H 3,V 14,M 10 14,H 14,V 18,H 10,V 14,M 17 14,H 21,V 18,H 17,V 14"></path></svg></svg></svg>