<svg xmlns="http://www.w3.org/2000/svg" width="960" height="540" viewBox="0,0,960,540"><svg viewBox="0,0,200,150" x="180" y="45" height="450" width="600"><svg width="200" viewBox="0,0,200,100"><polygon stroke-linejoin="round" style="fill: transparent;" stroke="currentColor" stroke-width="4" points="10,10,140,10,190,50,140,90,10,90"></polygon><line stroke="currentColor" stroke-width="4" x1="190" y1="50" x2="200" y2="50"></line></svg><text stroke="currentColor" x="0" y="15" font-size="1rem">GLOBAL_STATE_READ</text><svg height="55" width="80" x="60" y="47.5" viewBox="0,0,24,24" stroke-width="1.5" stroke="currentColor" fill="none"><path stroke-linecap="round" stroke-linejoin="round" d="M 0 3,H 24,V 12,H 0,V 3,M 0 12,V 18,H 6,V 12,M 6 18,H 12,V 12,M 12 18,H 18,V 12,M 18 18,H 24,V 12,M 5 6,H 7,V 8,H 5,V 6,M 11 6,H 13,V 8,H 11,V 6,M 17 6,H 19,V 8,H 17,V 6"></path></svg></svg></svg>