<svg width="600" height="600" xmlns="http://www.w3.org/2000/svg"><svg viewBox="0,0,200,150" x="100" y="200" height="200"><svg width="200" viewBox="0,0,200,100"><polygon stroke-linejoin="round" style="fill: transparent;" stroke="currentColor" stroke-width="4" points="10,10,140,10,190,50,140,90,10,90,60,50"></polygon><line stroke="currentColor" stroke-width="4" x1="0" y1="50" x2="60" y2="50"></line><line stroke="currentColor" stroke-width="4" x1="190" y1="50" x2="200" y2="50"></line></svg><text stroke="currentColor" x="0" y="1rem" font-size="1rem">GUARD</text><svg height="55" width="80" x="60" y="47.5" viewBox="0,0,24,24" stroke-width="1.5" stroke="currentColor" fill="none"><path stroke-linecap="round" stroke-linejoin="round" d="M9.879,7.519c1.171-1.025,3.071-1.025,4.242,0,1.172,1.025,1.172,2.687,0,3.712-.203.179-.43.326-.67.442-.745.361-1.45.999-1.45,1.827v.75M21,12a9,9,0,1,1-18,0,9,9,0,0,1,18,0Zm-9,5.25h.008v.008H12v-.008Z"></path></svg></svg></svg>