<svg width="600" height="600" xmlns="http://www.w3.org/2000/svg"><svg viewBox="0,0,200,150" x="100" y="200" height="200"><svg width="200" viewBox="0,0,200,100"><polygon stroke-linejoin="round" style="fill: transparent;" stroke="currentColor" stroke-width="4" points="10,10,140,10,190,33.333333333333336,140,50,190,66.66666666666667,140,90,10,90,60,50"></polygon><line stroke="currentColor" stroke-width="4" x1="0" y1="50" x2="60" y2="50"></line><line stroke="currentColor" stroke-width="4" x1="190" y1="33.333333333333336" x2="200" y2="33.333333333333336"></line><line stroke="currentColor" stroke-width="4" x1="190" y1="66.66666666666667" x2="200" y2="66.66666666666667"></line><svg height="16.666666666666668" width="33.333333333333336" x="135" y="22.5" viewBox="0,0,24,24" stroke-width="3" stroke="currentColor" fill="none"><path stroke-linecap="round" stroke-linejoin="round" d="m4.5,12.75,6,6,9-13.5"></path></svg><svg height="16.666666666666668" width="33.333333333333336" x="135" y="60" viewBox="0,0,24,24" stroke-width="3" stroke="currentColor" fill="none"><path stroke-linecap="round" stroke-linejoin="round" d="M6,18,18,6M6,6l12,12"></path></svg></svg><text stroke="currentColor" x="0" y="1rem" font-size="1rem">IO</text><svg height="55" width="80" x="60" y="47.5" viewBox="0,0,24,24" stroke-width="1.5" stroke="currentColor" fill="none"><path stroke-linecap="round" stroke-linejoin="round" d="M20.25,6.375c0,2.278-3.694,4.125-8.25,4.125S3.75,8.653,3.75,6.375m16.5,0c0-2.278-3.694-4.125-8.25-4.125S3.75,4.097,3.75,6.375m16.5,0v11.25c0,2.278-3.694,4.125-8.25,4.125s-8.25-1.847-8.25-4.125V6.375m16.5,0v3.75m-16.5-3.75v3.75m16.5,0v3.75C20.25,16.153,16.556,18,12,18s-8.25-1.847-8.25-4.125v-3.75m16.5,0c0,2.278-3.694,4.125-8.25,4.125s-8.25-1.847-8.25-4.125"></path></svg></svg></svg>