<svg width="600" height="600" xmlns="http://www.w3.org/2000/svg"><svg x="200" y="250" width="200" height="100"><rect x="0" y="0" width="200" stroke="red" fill="transparent" height="100"></rect><line style="stroke: red;" x1="0" x2="200" y1="0" y2="100"></line><line style="stroke: red;" x1="0" x2="200" y1="100" y2="0"></line><svg height="50" width="100" x="50" y="25" viewBox="0,0,24,24" stroke-width="1.5" stroke="currentColor"><path stroke-linecap="round" stroke-linejoin="round" d="M3,7.5,7.5,3m0,0L12,7.5M7.5,3v13.5m13.5,0L16.5,21m0,0L12,16.5m4.5,4.5V7.5"></path></svg><svg x="0" y="0" height="100" width="200"><polyline style="stroke: black; fill: transparent;" points="0,0,150,0,200,50,150,100,0,100,50,50,0,0"></polyline><text style="stroke: black;" x="50" y="1rem">sort</text></svg></svg></svg>