<svg xmlns="http://www.w3.org/2000/svg" width="460" height="400"><g transform="translate(60,10)"><g transform="translate(0,360)" fill="none" font-size="10" font-family="sans-serif" text-anchor="middle"><path class="domain" stroke="currentColor" d="M0.5,6V0.5H370.5V6"></path><g class="tick" opacity="1" transform="translate(0.5,0)"><line stroke="currentColor" y2="6"></line><text fill="currentColor" y="9" dy="0.71em">0</text></g><g class="tick" opacity="1" transform="translate(46.75,0)"><line stroke="currentColor" y2="6"></line><text fill="currentColor" y="9" dy="0.71em">500</text></g><g class="tick" opacity="1" transform="translate(93,0)"><line stroke="currentColor" y2="6"></line><text fill="currentColor" y="9" dy="0.71em">1,000</text></g><g class="tick" opacity="1" transform="translate(139.25,0)"><line stroke="currentColor" y2="6"></line><text fill="currentColor" y="9" dy="0.71em">1,500</text></g><g class="tick" opacity="1" transform="translate(185.5,0)"><line stroke="currentColor" y2="6"></line><text fill="currentColor" y="9" dy="0.71em">2,000</text></g><g class="tick" opacity="1" transform="translate(231.75,0)"><line stroke="currentColor" y2="6"></line><text fill="currentColor" y="9" dy="0.71em">2,500</text></g><g class="tick" opacity="1" transform="translate(278,0)"><line stroke="currentColor" y2="6"></line><text fill="currentColor" y="9" dy="0.71em">3,000</text></g><g class="tick" opacity="1" transform="translate(324.25,0)"><line stroke="currentColor" y2="6"></line><text fill="currentColor" y="9" dy="0.71em">3,500</text></g><g class="tick" opacity="1" transform="translate(370.5,0)"><line stroke="currentColor" y2="6"></line><text fill="currentColor" y="9" dy="0.71em">4,000</text></g></g><g fill="none" font-size="10" font-family="sans-serif" text-anchor="end"><path class="domain" stroke="currentColor" d="M-6,360.5H0.5V0.5H-6"></path><g class="tick" opacity="1" transform="translate(0,360.5)"><line stroke="currentColor" x2="-6"></line><text fill="currentColor" x="-9" dy="0.32em">0</text></g><g class="tick" opacity="1" transform="translate(0,324.5)"><line stroke="currentColor" x2="-6"></line><text fill="currentColor" x="-9" dy="0.32em">50,000</text></g><g class="tick" opacity="1" transform="translate(0,288.5)"><line stroke="currentColor" x2="-6"></line><text fill="currentColor" x="-9" dy="0.32em">100,000</text></g><g class="tick" opacity="1" transform="translate(0,252.49999999999997)"><line stroke="currentColor" x2="-6"></line><text fill="currentColor" x="-9" dy="0.32em">150,000</text></g><g class="tick" opacity="1" transform="translate(0,216.5)"><line stroke="currentColor" x2="-6"></line><text fill="currentColor" x="-9" dy="0.32em">200,000</text></g><g class="tick" opacity="1" transform="translate(0,180.5)"><line stroke="currentColor" x2="-6"></line><text fill="currentColor" x="-9" dy="0.32em">250,000</text></g><g class="tick" opacity="1" transform="translate(0,144.5)"><line stroke="currentColor" x2="-6"></line><text fill="currentColor" x="-9" dy="0.32em">300,000</text></g><g class="tick" opacity="1" transform="translate(0,108.50000000000001)"><line stroke="currentColor" x2="-6"></line><text fill="currentColor" x="-9" dy="0.32em">350,000</text></g><g class="tick" opacity="1" transform="translate(0,72.49999999999999)"><line stroke="currentColor" x2="-6"></line><text fill="currentColor" x="-9" dy="0.32em">400,000</text></g><g class="tick" opacity="1" transform="translate(0,36.49999999999999)"><line stroke="currentColor" x2="-6"></line><text fill="currentColor" x="-9" dy="0.32em">450,000</text></g><g class="tick" opacity="1" transform="translate(0,0.5)"><line stroke="currentColor" x2="-6"></line><text fill="currentColor" x="-9" dy="0.32em">500,000</text></g></g><g><circle cx="0.0925" cy="360" r="1.5" style="fill: currentColor;"></circle><circle cx="9.25" cy="359.37792" r="1.5" style="fill: currentColor;"></circle></g><path d="M0,360.006L370,334.872" class="reg" style="stroke-dasharray: 3, 3;" stroke="red" stroke-width="1"></path></g></svg>