<svg xmlns="http://www.w3.org/2000/svg" width="460" height="400"><g transform="translate(60,10)"><g transform="translate(0,360)" fill="none" font-size="10" font-family="sans-serif" text-anchor="middle"><path class="domain" stroke="currentColor" d="M0.5,6V0.5H370.5V6"></path><g class="tick" opacity="1" transform="translate(0.5,0)"><line stroke="currentColor" y2="6"></line><text fill="currentColor" y="9" dy="0.71em">0</text></g><g class="tick" opacity="1" transform="translate(46.75,0)"><line stroke="currentColor" y2="6"></line><text fill="currentColor" y="9" dy="0.71em">500</text></g><g class="tick" opacity="1" transform="translate(93,0)"><line stroke="currentColor" y2="6"></line><text fill="currentColor" y="9" dy="0.71em">1,000</text></g><g class="tick" opacity="1" transform="translate(139.25,0)"><line stroke="currentColor" y2="6"></line><text fill="currentColor" y="9" dy="0.71em">1,500</text></g><g class="tick" opacity="1" transform="translate(185.5,0)"><line stroke="currentColor" y2="6"></line><text fill="currentColor" y="9" dy="0.71em">2,000</text></g><g class="tick" opacity="1" transform="translate(231.75,0)"><line stroke="currentColor" y2="6"></line><text fill="currentColor" y="9" dy="0.71em">2,500</text></g><g class="tick" opacity="1" transform="translate(278,0)"><line stroke="currentColor" y2="6"></line><text fill="currentColor" y="9" dy="0.71em">3,000</text></g><g class="tick" opacity="1" transform="translate(324.25,0)"><line stroke="currentColor" y2="6"></line><text fill="currentColor" y="9" dy="0.71em">3,500</text></g><g class="tick" opacity="1" transform="translate(370.5,0)"><line stroke="currentColor" y2="6"></line><text fill="currentColor" y="9" dy="0.71em">4,000</text></g></g><g fill="none" font-size="10" font-family="sans-serif" text-anchor="end"><path class="domain" stroke="currentColor" d="M-6,360.5H0.5V0.5H-6"></path><g class="tick" opacity="1" transform="translate(0,360.5)"><line stroke="currentColor" x2="-6"></line><text fill="currentColor" x="-9" dy="0.32em">0</text></g><g class="tick" opacity="1" transform="translate(0,324.5)"><line stroke="currentColor" x2="-6"></line><text fill="currentColor" x="-9" dy="0.32em">50,000</text></g><g class="tick" opacity="1" transform="translate(0,288.5)"><line stroke="currentColor" x2="-6"></line><text fill="currentColor" x="-9" dy="0.32em">100,000</text></g><g class="tick" opacity="1" transform="translate(0,252.49999999999997)"><line stroke="currentColor" x2="-6"></line><text fill="currentColor" x="-9" dy="0.32em">150,000</text></g><g class="tick" opacity="1" transform="translate(0,216.5)"><line stroke="currentColor" x2="-6"></line><text fill="currentColor" x="-9" dy="0.32em">200,000</text></g><g class="tick" opacity="1" transform="translate(0,180.5)"><line stroke="currentColor" x2="-6"></line><text fill="currentColor" x="-9" dy="0.32em">250,000</text></g><g class="tick" opacity="1" transform="translate(0,144.5)"><line stroke="currentColor" x2="-6"></line><text fill="currentColor" x="-9" dy="0.32em">300,000</text></g><g class="tick" opacity="1" transform="translate(0,108.50000000000001)"><line stroke="currentColor" x2="-6"></line><text fill="currentColor" x="-9" dy="0.32em">350,000</text></g><g class="tick" opacity="1" transform="translate(0,72.49999999999999)"><line stroke="currentColor" x2="-6"></line><text fill="currentColor" x="-9" dy="0.32em">400,000</text></g><g class="tick" opacity="1" transform="translate(0,36.49999999999999)"><line stroke="currentColor" x2="-6"></line><text fill="currentColor" x="-9" dy="0.32em">450,000</text></g><g class="tick" opacity="1" transform="translate(0,0.5)"><line stroke="currentColor" x2="-6"></line><text fill="currentColor" x="-9" dy="0.32em">500,000</text></g></g><g><circle cx="0" cy="360" r="1.5" style="fill: currentColor;"></circle><circle cx="92.5" cy="359.9990496" r="1.5" style="fill: currentColor;"></circle><circle cx="185" cy="359.9990352" r="1.5" style="fill: currentColor;"></circle><circle cx="277.5" cy="359.9990136" r="1.5" style="fill: currentColor;"></circle><circle cx="370" cy="359.9989416" r="1.5" style="fill: currentColor;"></circle><circle cx="462.5" cy="359.9988768" r="1.5" style="fill: currentColor;"></circle><circle cx="555" cy="359.9989344" r="1.5" style="fill: currentColor;"></circle><circle cx="647.5" cy="359.998848" r="1.5" style="fill: currentColor;"></circle><circle cx="740" cy="359.9988624" r="1.5" style="fill: currentColor;"></circle><circle cx="832.5" cy="359.9989272" r="1.5" style="fill: currentColor;"></circle><circle cx="925" cy="359.998884" r="1.5" style="fill: currentColor;"></circle><circle cx="1017.5" cy="359.99884080000004" r="1.5" style="fill: currentColor;"></circle><circle cx="1110" cy="359.9989056" r="1.5" style="fill: currentColor;"></circle><circle cx="1202.5" cy="359.9988984" r="1.5" style="fill: currentColor;"></circle><circle cx="1295" cy="359.99881919999996" r="1.5" style="fill: currentColor;"></circle><circle cx="1387.5" cy="359.9988984" r="1.5" style="fill: currentColor;"></circle><circle cx="1480" cy="359.9988912" r="1.5" style="fill: currentColor;"></circle><circle cx="1572.5" cy="359.998812" r="1.5" style="fill: currentColor;"></circle><circle cx="1665" cy="359.9988624" r="1.5" style="fill: currentColor;"></circle><circle cx="1757.5" cy="359.998884" r="1.5" style="fill: currentColor;"></circle><circle cx="1850" cy="359.9988048" r="1.5" style="fill: currentColor;"></circle><circle cx="1942.5" cy="359.998812" r="1.5" style="fill: currentColor;"></circle><circle cx="2035" cy="359.998884" r="1.5" style="fill: currentColor;"></circle><circle cx="2127.5" cy="359.9988048" r="1.5" style="fill: currentColor;"></circle><circle cx="2220" cy="359.9988048" r="1.5" style="fill: currentColor;"></circle><circle cx="2312.5" cy="359.9988768" r="1.5" style="fill: currentColor;"></circle><circle cx="2405" cy="359.9987976" r="1.5" style="fill: currentColor;"></circle><circle cx="2497.5" cy="359.9987832" r="1.5" style="fill: currentColor;"></circle><circle cx="2590" cy="359.9988552" r="1.5" style="fill: currentColor;"></circle><circle cx="2682.5" cy="359.9987832" r="1.5" style="fill: currentColor;"></circle><circle cx="2775" cy="359.9987832" r="1.5" style="fill: currentColor;"></circle><circle cx="2867.5" cy="359.998848" r="1.5" style="fill: currentColor;"></circle><circle cx="2960" cy="359.998776" r="1.5" style="fill: currentColor;"></circle><circle cx="3052.5" cy="359.9987616" r="1.5" style="fill: currentColor;"></circle><circle cx="3145" cy="359.9988336" r="1.5" style="fill: currentColor;"></circle><circle cx="3237.5" cy="359.9987616" r="1.5" style="fill: currentColor;"></circle><circle cx="3330" cy="359.9987472" r="1.5" style="fill: currentColor;"></circle><circle cx="3422.5" cy="359.9988048" r="1.5" style="fill: currentColor;"></circle><circle cx="3515" cy="359.99873279999997" r="1.5" style="fill: currentColor;"></circle><circle cx="3607.5" cy="359.9987256" r="1.5" style="fill: currentColor;"></circle><circle cx="3700" cy="359.9988048" r="1.5" style="fill: currentColor;"></circle><circle cx="3792.5" cy="359.9987256" r="1.5" style="fill: currentColor;"></circle><circle cx="3885" cy="359.99873279999997" r="1.5" style="fill: currentColor;"></circle><circle cx="3977.5" cy="359.9987832" r="1.5" style="fill: currentColor;"></circle><circle cx="4070" cy="359.99868960000003" r="1.5" style="fill: currentColor;"></circle><circle cx="4162.5" cy="359.9987472" r="1.5" style="fill: currentColor;"></circle><circle cx="4255" cy="359.9987544" r="1.5" style="fill: currentColor;"></circle><circle cx="4347.5" cy="359.9986824" r="1.5" style="fill: currentColor;"></circle><circle cx="4440" cy="359.9987616" r="1.5" style="fill: currentColor;"></circle><circle cx="4532.5" cy="359.9987472" r="1.5" style="fill: currentColor;"></circle><circle cx="4625" cy="359.998668" r="1.5" style="fill: currentColor;"></circle><circle cx="4717.5" cy="359.99874" r="1.5" style="fill: currentColor;"></circle><circle cx="4810" cy="359.998704" r="1.5" style="fill: currentColor;"></circle><circle cx="4902.5" cy="359.9986536" r="1.5" style="fill: currentColor;"></circle><circle cx="4995" cy="359.9987544" r="1.5" style="fill: currentColor;"></circle><circle cx="5087.5" cy="359.9986464" r="1.5" style="fill: currentColor;"></circle><circle cx="5180" cy="359.99867520000004" r="1.5" style="fill: currentColor;"></circle><circle cx="5272.5" cy="359.9987256" r="1.5" style="fill: currentColor;"></circle><circle cx="5365" cy="359.9986392" r="1.5" style="fill: currentColor;"></circle><circle cx="5457.5" cy="359.9987256" r="1.5" style="fill: currentColor;"></circle><circle cx="5550" cy="359.9987112" r="1.5" style="fill: currentColor;"></circle><circle cx="5642.5" cy="359.9986032" r="1.5" style="fill: currentColor;"></circle><circle cx="5735" cy="359.998704" r="1.5" style="fill: currentColor;"></circle><circle cx="5827.5" cy="359.9986248" r="1.5" style="fill: currentColor;"></circle><circle cx="5920" cy="359.9986392" r="1.5" style="fill: currentColor;"></circle><circle cx="6012.5" cy="359.9987544" r="1.5" style="fill: currentColor;"></circle><circle cx="6105" cy="359.9986104" r="1.5" style="fill: currentColor;"></circle><circle cx="6197.5" cy="359.99868960000003" r="1.5" style="fill: currentColor;"></circle><circle cx="6290" cy="359.9986536" r="1.5" style="fill: currentColor;"></circle><circle cx="6382.5" cy="359.998596" r="1.5" style="fill: currentColor;"></circle><circle cx="6475" cy="359.99868960000003" r="1.5" style="fill: currentColor;"></circle><circle cx="6567.5" cy="359.99856719999997" r="1.5" style="fill: currentColor;"></circle><circle cx="6660" cy="359.9986392" r="1.5" style="fill: currentColor;"></circle><circle cx="6752.5" cy="359.9986464" r="1.5" style="fill: currentColor;"></circle><circle cx="6845" cy="359.9985744" r="1.5" style="fill: currentColor;"></circle><circle cx="6937.5" cy="359.9986536" r="1.5" style="fill: currentColor;"></circle><circle cx="7030" cy="359.99856" r="1.5" style="fill: currentColor;"></circle><circle cx="7122.5" cy="359.9985888" r="1.5" style="fill: currentColor;"></circle><circle cx="7215" cy="359.998632" r="1.5" style="fill: currentColor;"></circle><circle cx="7307.5" cy="359.99852400000003" r="1.5" style="fill: currentColor;"></circle><circle cx="7400" cy="359.9986176" r="1.5" style="fill: currentColor;"></circle><circle cx="7492.5" cy="359.9985312" r="1.5" style="fill: currentColor;"></circle><circle cx="7585" cy="359.9985744" r="1.5" style="fill: currentColor;"></circle><circle cx="7677.5" cy="359.9986248" r="1.5" style="fill: currentColor;"></circle><circle cx="7770" cy="359.9985456" r="1.5" style="fill: currentColor;"></circle><circle cx="7862.5" cy="359.998596" r="1.5" style="fill: currentColor;"></circle><circle cx="7955" cy="359.9986464" r="1.5" style="fill: currentColor;"></circle><circle cx="8047.5" cy="359.998704" r="1.5" style="fill: currentColor;"></circle><circle cx="8140" cy="359.9986968" r="1.5" style="fill: currentColor;"></circle><circle cx="8232.5" cy="359.998704" r="1.5" style="fill: currentColor;"></circle><circle cx="8325" cy="359.9987184" r="1.5" style="fill: currentColor;"></circle><circle cx="8417.5" cy="359.9986464" r="1.5" style="fill: currentColor;"></circle><circle cx="8510" cy="359.9985744" r="1.5" style="fill: currentColor;"></circle><circle cx="8602.5" cy="359.9986968" r="1.5" style="fill: currentColor;"></circle><circle cx="8695" cy="359.99867520000004" r="1.5" style="fill: currentColor;"></circle><circle cx="8787.5" cy="359.99868960000003" r="1.5" style="fill: currentColor;"></circle><circle cx="8880" cy="359.99858159999997" r="1.5" style="fill: currentColor;"></circle><circle cx="8972.5" cy="359.9984808" r="1.5" style="fill: currentColor;"></circle><circle cx="9065" cy="359.99856719999997" r="1.5" style="fill: currentColor;"></circle><circle cx="9157.5" cy="359.998488" r="1.5" style="fill: currentColor;"></circle><circle cx="9250" cy="359.9985168" r="1.5" style="fill: currentColor;"></circle></g><path d="M0,359.999L370,359.999" class="reg" style="stroke-dasharray: 3, 3;" stroke="red" stroke-width="1"></path></g></svg>