<svg xmlns="http://www.w3.org/2000/svg" height="650" width="5420" viewBox="0,0,5420,650"><svg viewBox="0,0,200,150" x="10" y="250" height="150" width="200"><svg width="200" viewBox="0,0,200,100"><polygon stroke-linejoin="round" style="fill: transparent;" stroke="currentColor" stroke-width="4" points="10,10,140,10,190,33.333333333333336,140,50,190,66.66666666666667,140,90,10,90"></polygon><line stroke="currentColor" stroke-width="4" x1="190" y1="33.333333333333336" x2="200" y2="33.333333333333336"></line><line stroke="currentColor" stroke-width="4" x1="190" y1="66.66666666666667" x2="200" y2="66.66666666666667"></line><svg height="16.666666666666668" width="33.333333333333336" x="135" y="22.5" viewBox="0,0,24,24" stroke-width="3" stroke="currentColor" fill="none"><path stroke-linecap="round" stroke-linejoin="round" d="m4.5,12.75,6,6,9-13.5"></path></svg><svg height="16.666666666666668" width="33.333333333333336" x="135" y="60" viewBox="0,0,24,24" stroke-width="3" stroke="currentColor" fill="none"><path stroke-linecap="round" stroke-linejoin="round" d="M6,18,18,6M6,6l12,12"></path></svg></svg><text stroke="currentColor" x="0" y="15" font-size="1rem">GET index.html</text><svg height="55" width="80" x="60" y="47.5" viewBox="0,0,24,24" stroke-width="1.5" stroke="currentColor" fill="none"><path stroke-linecap="round" stroke-linejoin="round" d="M7.5,21,3,16.5m0,0L7.5,12M3,16.5h13.5m0-13.5L21,7.5m0,0L16.5,12M21,7.5H7.5"></path></svg></svg><path stroke-width="4" stroke="currentColor" fill="none" stroke-linecap="round" stroke-linejoin="round" d="M 210 308.3,H 310,L 410 245"></path><text stroke="currentColor" x="210" y="298.3" font-size="1rem"></text><path stroke-width="4" stroke="currentColor" fill="none" stroke-linecap="round" stroke-linejoin="round" d="M 210 341.7,H 310,L 410 405"></path><text stroke="currentColor" x="210" y="331.7" font-size="1rem"></text><svg viewBox="0,0,200,150" x="410" y="170" height="150" width="200"><svg width="200" viewBox="0,0,200,100"><line stroke="currentColor" stroke-width="4" x1="60" y1="50" x2="190" y2="50"></line><line stroke="currentColor" stroke-width="4" x1="0" y1="50" x2="60" y2="50"></line><line stroke="currentColor" stroke-width="4" x1="190" y1="50" x2="200" y2="50"></line></svg><text stroke="currentColor" x="0" y="15" font-size="1rem">/index.html</text><svg height="55" width="80" x="60" y="47.5" viewBox="0,0,24,24" stroke-width="1.5" stroke="currentColor"></svg></svg><path stroke-width="4" stroke="currentColor" fill="none" stroke-linecap="round" stroke-linejoin="round" d="M 610 245,H 710,L 810 325"></path><text stroke="currentColor" x="610" y="235" font-size="1rem"></text><svg viewBox="0,0,200,150" x="410" y="330" height="150" width="200"><svg width="200" viewBox="0,0,200,100"><polygon stroke-linejoin="round" style="fill: transparent;" stroke="currentColor" stroke-width="4" points="10,10,140,10,190,10,190,90,140,90,10,90,60,50"></polygon><line stroke="currentColor" stroke-width="4" x1="0" y1="50" x2="60" y2="50"></line></svg><text stroke="currentColor" x="0" y="15" font-size="1rem">404 Error</text><svg height="55" width="80" x="60" y="47.5" viewBox="0,0,24,24" stroke-width="1.5" stroke="currentColor" fill="none"><path stroke-linecap="round" stroke-linejoin="round" d="M7.5,21,3,16.5m0,0L7.5,12M3,16.5h13.5m0-13.5L21,7.5m0,0L16.5,12M21,7.5H7.5"></path></svg></svg><svg viewBox="0,0,200,150" x="810" y="250" height="150" width="200"><svg width="200" viewBox="0,0,200,100"><polygon stroke-linejoin="round" style="fill: transparent;" stroke="currentColor" stroke-width="4" points="10,10,140,10,190,50,140,90,10,90,60,50"></polygon><line stroke="currentColor" stroke-width="4" x1="0" y1="50" x2="60" y2="50"></line><line stroke="currentColor" stroke-width="4" x1="190" y1="50" x2="200" y2="50"></line></svg><text stroke="currentColor" x="0" y="15" font-size="1rem">200 Response</text><svg height="55" width="80" x="60" y="47.5" viewBox="0,0,24,24" stroke-width="1.5" stroke="currentColor" fill="none"><path stroke-linecap="round" stroke-linejoin="round" d="M7.5,21,3,16.5m0,0L7.5,12M3,16.5h13.5m0-13.5L21,7.5m0,0L16.5,12M21,7.5H7.5"></path></svg></svg><path stroke-width="4" stroke="currentColor" fill="none" stroke-linecap="round" stroke-linejoin="round" d="M 1010 325,H 1110,L 1210 325"></path><text stroke="currentColor" x="1010" y="315" font-size="1rem"></text><svg viewBox="0,0,200,150" x="1210" y="250" height="150" width="200"><svg width="200" viewBox="0,0,200,100"><polygon stroke-linejoin="round" style="fill: transparent;" stroke="currentColor" stroke-width="4" points="10,10,140,10,190,50,140,90,10,90,60,50"></polygon><line stroke="currentColor" stroke-width="4" x1="0" y1="50" x2="60" y2="50"></line><line stroke="currentColor" stroke-width="4" x1="190" y1="50" x2="200" y2="50"></line></svg><text stroke="currentColor" x="0" y="15" font-size="1rem">Parse HTML</text><svg height="55" width="80" x="60" y="47.5" viewBox="0,0,24,24" stroke-width="1.5" stroke="currentColor" fill="none"><path stroke-linecap="round" stroke-linejoin="round" d="M7.5,21,3,16.5m0,0L7.5,12M3,16.5h13.5m0-13.5L21,7.5m0,0L16.5,12M21,7.5H7.5"></path></svg></svg><path stroke-width="4" stroke="currentColor" fill="none" stroke-linecap="round" stroke-linejoin="round" d="M 1410 325,H 1510,L 1610 245"></path><text stroke="currentColor" x="1410" y="315" font-size="1rem"></text><path stroke-width="4" stroke="currentColor" fill="none" stroke-linecap="round" stroke-linejoin="round" d="M 1410 325,H 1510,L 1610 405"></path><text stroke="currentColor" x="1410" y="315" font-size="1rem"></text><svg viewBox="0,0,200,150" x="1610" y="170" height="150" width="200"><svg width="200" viewBox="0,0,200,100"><polygon stroke-linejoin="round" style="fill: transparent;" stroke="currentColor" stroke-width="4" points="10,10,140,10,190,50,140,90,10,90,60,50"></polygon><line stroke="currentColor" stroke-width="4" x1="0" y1="50" x2="60" y2="50"></line><line stroke="currentColor" stroke-width="4" x1="190" y1="50" x2="200" y2="50"></line></svg><text stroke="currentColor" x="0" y="15" font-size="1rem">GET styles.css</text><svg height="55" width="80" x="60" y="47.5" viewBox="0,0,24,24" stroke-width="1.5" stroke="currentColor" fill="none"><path stroke-linecap="round" stroke-linejoin="round" d="M7.5,21,3,16.5m0,0L7.5,12M3,16.5h13.5m0-13.5L21,7.5m0,0L16.5,12M21,7.5H7.5"></path></svg></svg><path stroke-width="4" stroke="currentColor" fill="none" stroke-linecap="round" stroke-linejoin="round" d="M 1810 245,H 1910,L 2010 85"></path><text stroke="currentColor" x="1810" y="235" font-size="1rem"></text><path stroke-width="4" stroke="currentColor" fill="none" stroke-linecap="round" stroke-linejoin="round" d="M 1810 245,H 1910,L 2010 245"></path><text stroke="currentColor" x="1810" y="235" font-size="1rem"></text><svg viewBox="0,0,200,150" x="1610" y="330" height="150" width="200"><svg width="200" viewBox="0,0,200,100"><polygon stroke-linejoin="round" style="fill: transparent;" stroke="currentColor" stroke-width="4" points="10,10,140,10,190,50,140,90,10,90,60,50"></polygon><line stroke="currentColor" stroke-width="4" x1="0" y1="50" x2="60" y2="50"></line><line stroke="currentColor" stroke-width="4" x1="190" y1="50" x2="200" y2="50"></line></svg><text stroke="currentColor" x="0" y="15" font-size="1rem">GET app.js</text><svg height="55" width="80" x="60" y="47.5" viewBox="0,0,24,24" stroke-width="1.5" stroke="currentColor" fill="none"><path stroke-linecap="round" stroke-linejoin="round" d="M7.5,21,3,16.5m0,0L7.5,12M3,16.5h13.5m0-13.5L21,7.5m0,0L16.5,12M21,7.5H7.5"></path></svg></svg><path stroke-width="4" stroke="currentColor" fill="none" stroke-linecap="round" stroke-linejoin="round" d="M 1810 405,H 1910,L 2010 405"></path><text stroke="currentColor" x="1810" y="395" font-size="1rem"></text><path stroke-width="4" stroke="currentColor" fill="none" stroke-linecap="round" stroke-linejoin="round" d="M 1810 405,H 1910,L 2010 565"></path><text stroke="currentColor" x="1810" y="395" font-size="1rem"></text><svg viewBox="0,0,200,150" x="2010" y="10" height="150" width="200"><svg width="200" viewBox="0,0,200,100"><line stroke="currentColor" stroke-width="4" x1="60" y1="50" x2="190" y2="50"></line><line stroke="currentColor" stroke-width="4" x1="0" y1="50" x2="60" y2="50"></line><line stroke="currentColor" stroke-width="4" x1="190" y1="50" x2="200" y2="50"></line></svg><text stroke="currentColor" x="0" y="15" font-size="1rem">/styles.css</text><svg height="55" width="80" x="60" y="47.5" viewBox="0,0,24,24" stroke-width="1.5" stroke="currentColor"></svg></svg><path stroke-width="4" stroke="currentColor" fill="none" stroke-linecap="round" stroke-linejoin="round" d="M 2210 85,H 2310,L 2410 325"></path><text stroke="currentColor" x="2210" y="75" font-size="1rem"></text><svg viewBox="0,0,200,150" x="2010" y="170" height="150" width="200"><svg width="200" viewBox="0,0,200,100"><polygon stroke-linejoin="round" style="fill: transparent;" stroke="currentColor" stroke-width="4" points="10,10,140,10,190,10,190,90,140,90,10,90,60,50"></polygon><line stroke="currentColor" stroke-width="4" x1="0" y1="50" x2="60" y2="50"></line></svg><text stroke="currentColor" x="0" y="15" font-size="1rem">404 Error</text><svg height="55" width="80" x="60" y="47.5" viewBox="0,0,24,24" stroke-width="1.5" stroke="currentColor" fill="none"><path stroke-linecap="round" stroke-linejoin="round" d="M7.5,21,3,16.5m0,0L7.5,12M3,16.5h13.5m0-13.5L21,7.5m0,0L16.5,12M21,7.5H7.5"></path></svg></svg><svg viewBox="0,0,200,150" x="2010" y="330" height="150" width="200"><svg width="200" viewBox="0,0,200,100"><line stroke="currentColor" stroke-width="4" x1="60" y1="50" x2="190" y2="50"></line><line stroke="currentColor" stroke-width="4" x1="0" y1="50" x2="60" y2="50"></line><line stroke="currentColor" stroke-width="4" x1="190" y1="50" x2="200" y2="50"></line></svg><text stroke="currentColor" x="0" y="15" font-size="1rem">/app.js</text><svg height="55" width="80" x="60" y="47.5" viewBox="0,0,24,24" stroke-width="1.5" stroke="currentColor"></svg></svg><path stroke-width="4" stroke="currentColor" fill="none" stroke-linecap="round" stroke-linejoin="round" d="M 2210 405,H 2310,L 2410 325"></path><text stroke="currentColor" x="2210" y="395" font-size="1rem"></text><svg viewBox="0,0,200,150" x="2010" y="490" height="150" width="200"><svg width="200" viewBox="0,0,200,100"><polygon stroke-linejoin="round" style="fill: transparent;" stroke="currentColor" stroke-width="4" points="10,10,140,10,190,10,190,90,140,90,10,90,60,50"></polygon><line stroke="currentColor" stroke-width="4" x1="0" y1="50" x2="60" y2="50"></line></svg><text stroke="currentColor" x="0" y="15" font-size="1rem">404 Error</text><svg height="55" width="80" x="60" y="47.5" viewBox="0,0,24,24" stroke-width="1.5" stroke="currentColor" fill="none"><path stroke-linecap="round" stroke-linejoin="round" d="M7.5,21,3,16.5m0,0L7.5,12M3,16.5h13.5m0-13.5L21,7.5m0,0L16.5,12M21,7.5H7.5"></path></svg></svg><svg viewBox="0,0,200,150" x="2410" y="250" height="150" width="200"><svg width="200" viewBox="0,0,200,100"><polygon stroke-linejoin="round" style="fill: transparent;" stroke="currentColor" stroke-width="4" points="10,10,140,10,190,50,140,90,10,90,60,50"></polygon><line stroke="currentColor" stroke-width="4" x1="0" y1="50" x2="60" y2="50"></line><line stroke="currentColor" stroke-width="4" x1="190" y1="50" x2="200" y2="50"></line></svg><text stroke="currentColor" x="0" y="15" font-size="1rem">Render HTML</text><svg height="55" width="80" x="60" y="47.5" viewBox="0,0,24,24" stroke-width="1.5" stroke="currentColor" fill="none"><path stroke-linecap="round" stroke-linejoin="round" d="M7.5,21,3,16.5m0,0L7.5,12M3,16.5h13.5m0-13.5L21,7.5m0,0L16.5,12M21,7.5H7.5"></path></svg></svg><path stroke-width="4" stroke="currentColor" fill="none" stroke-linecap="round" stroke-linejoin="round" d="M 2610 325,H 2710,L 2810 325"></path><text stroke="currentColor" x="2610" y="315" font-size="1rem"></text><svg viewBox="0,0,200,150" x="2810" y="250" height="150" width="200"><svg width="200" viewBox="0,0,200,100"><polygon stroke-linejoin="round" style="fill: transparent;" stroke="currentColor" stroke-width="4" points="10,10,140,10,190,33.333333333333336,140,50,190,66.66666666666667,140,90,10,90,60,50"></polygon><line stroke="currentColor" stroke-width="4" x1="0" y1="50" x2="60" y2="50"></line><line stroke="currentColor" stroke-width="4" x1="190" y1="33.333333333333336" x2="200" y2="33.333333333333336"></line><line stroke="currentColor" stroke-width="4" x1="190" y1="66.66666666666667" x2="200" y2="66.66666666666667"></line><svg height="16.666666666666668" width="33.333333333333336" x="135" y="22.5" viewBox="0,0,24,24" stroke-width="3" stroke="currentColor" fill="none"><path stroke-linecap="round" stroke-linejoin="round" d="m4.5,12.75,6,6,9-13.5"></path></svg><svg height="16.666666666666668" width="33.333333333333336" x="135" y="60" viewBox="0,0,24,24" stroke-width="3" stroke="currentColor" fill="none"><path stroke-linecap="round" stroke-linejoin="round" d="M6,18,18,6M6,6l12,12"></path></svg></svg><text stroke="currentColor" x="0" y="15" font-size="1rem">GET /api/patients</text><svg height="55" width="80" x="60" y="47.5" viewBox="0,0,24,24" stroke-width="1.5" stroke="currentColor" fill="none"><path stroke-linecap="round" stroke-linejoin="round" d="M7.5,21,3,16.5m0,0L7.5,12M3,16.5h13.5m0-13.5L21,7.5m0,0L16.5,12M21,7.5H7.5"></path></svg></svg><path stroke-width="4" stroke="currentColor" fill="none" stroke-linecap="round" stroke-linejoin="round" d="M 3010 308.3,H 3110,L 3210 245"></path><text stroke="currentColor" x="3010" y="298.3" font-size="1rem"></text><path stroke-width="4" stroke="currentColor" fill="none" stroke-linecap="round" stroke-linejoin="round" d="M 3010 341.7,H 3110,L 3210 405"></path><text stroke="currentColor" x="3010" y="331.7" font-size="1rem"></text><svg viewBox="0,0,200,150" x="3210" y="170" height="150" width="200"><svg width="200" viewBox="0,0,200,100"><line stroke="currentColor" stroke-width="4" x1="60" y1="50" x2="190" y2="50"></line><line stroke="currentColor" stroke-width="4" x1="0" y1="50" x2="60" y2="50"></line><line stroke="currentColor" stroke-width="4" x1="190" y1="50" x2="200" y2="50"></line></svg><text stroke="currentColor" x="0" y="15" font-size="1rem">/api/patients</text><svg height="55" width="80" x="60" y="47.5" viewBox="0,0,24,24" stroke-width="1.5" stroke="currentColor"></svg></svg><path stroke-width="4" stroke="currentColor" fill="none" stroke-linecap="round" stroke-linejoin="round" d="M 3410 245,H 3510,L 3610 325"></path><text stroke="currentColor" x="3410" y="235" font-size="1rem"></text><svg viewBox="0,0,200,150" x="3210" y="330" height="150" width="200"><svg width="200" viewBox="0,0,200,100"><polygon stroke-linejoin="round" style="fill: transparent;" stroke="currentColor" stroke-width="4" points="10,10,140,10,190,10,190,90,140,90,10,90,60,50"></polygon><line stroke="currentColor" stroke-width="4" x1="0" y1="50" x2="60" y2="50"></line></svg><text stroke="currentColor" x="0" y="15" font-size="1rem">404 Error</text><svg height="55" width="80" x="60" y="47.5" viewBox="0,0,24,24" stroke-width="1.5" stroke="currentColor" fill="none"><path stroke-linecap="round" stroke-linejoin="round" d="M7.5,21,3,16.5m0,0L7.5,12M3,16.5h13.5m0-13.5L21,7.5m0,0L16.5,12M21,7.5H7.5"></path></svg></svg><svg viewBox="0,0,200,150" x="3610" y="250" height="150" width="200"><svg width="200" viewBox="0,0,200,100"><polygon stroke-linejoin="round" style="fill: transparent;" stroke="currentColor" stroke-width="4" points="10,10,140,10,190,33.333333333333336,140,50,190,66.66666666666667,140,90,10,90,60,50"></polygon><line stroke="currentColor" stroke-width="4" x1="0" y1="50" x2="60" y2="50"></line><line stroke="currentColor" stroke-width="4" x1="190" y1="33.333333333333336" x2="200" y2="33.333333333333336"></line><line stroke="currentColor" stroke-width="4" x1="190" y1="66.66666666666667" x2="200" y2="66.66666666666667"></line><svg height="16.666666666666668" width="33.333333333333336" x="135" y="22.5" viewBox="0,0,24,24" stroke-width="3" stroke="currentColor" fill="none"><path stroke-linecap="round" stroke-linejoin="round" d="m4.5,12.75,6,6,9-13.5"></path></svg><svg height="16.666666666666668" width="33.333333333333336" x="135" y="60" viewBox="0,0,24,24" stroke-width="3" stroke="currentColor" fill="none"><path stroke-linecap="round" stroke-linejoin="round" d="M6,18,18,6M6,6l12,12"></path></svg></svg><text stroke="currentColor" x="0" y="15" font-size="1rem">Get Patients Table Data</text><svg height="55" width="80" x="60" y="47.5" viewBox="0,0,24,24" stroke-width="1.5" stroke="currentColor" fill="none"><path stroke-linecap="round" stroke-linejoin="round" d="M7.5,21,3,16.5m0,0L7.5,12M3,16.5h13.5m0-13.5L21,7.5m0,0L16.5,12M21,7.5H7.5"></path></svg></svg><path stroke-width="4" stroke="currentColor" fill="none" stroke-linecap="round" stroke-linejoin="round" d="M 3810 308.3,H 3910,L 4010 245"></path><text stroke="currentColor" x="3810" y="298.3" font-size="1rem"></text><path stroke-width="4" stroke="currentColor" fill="none" stroke-linecap="round" stroke-linejoin="round" d="M 3810 341.7,H 3910,L 4010 405"></path><text stroke="currentColor" x="3810" y="331.7" font-size="1rem"></text><svg viewBox="0,0,200,150" x="4010" y="170" height="150" width="200"><svg width="200" viewBox="0,0,200,100"><polygon stroke-linejoin="round" style="fill: transparent;" stroke="currentColor" stroke-width="4" points="10,10,140,10,190,50,140,90,10,90,60,50"></polygon><line stroke="currentColor" stroke-width="4" x1="0" y1="50" x2="60" y2="50"></line><line stroke="currentColor" stroke-width="4" x1="190" y1="50" x2="200" y2="50"></line></svg><text stroke="currentColor" x="0" y="15" font-size="1rem">Map to JSON</text><svg height="55" width="80" x="60" y="47.5" viewBox="0,0,24,24" stroke-width="1.5" stroke="currentColor"><path stroke-linecap="round" stroke-linejoin="round" d="M 0 6,H 18,M 0 18,H 18,M 12 0,L 24 12,M 12 24,L 24 12"></path></svg></svg><path stroke-width="4" stroke="currentColor" fill="none" stroke-linecap="round" stroke-linejoin="round" d="M 4210 245,H 4310,L 4410 325"></path><text stroke="currentColor" x="4210" y="235" font-size="1rem"></text><svg viewBox="0,0,200,150" x="4010" y="330" height="150" width="200"><svg width="200" viewBox="0,0,200,100"><polygon stroke-linejoin="round" style="fill: transparent;" stroke="currentColor" stroke-width="4" points="10,10,140,10,190,10,190,90,140,90,10,90,60,50"></polygon><line stroke="currentColor" stroke-width="4" x1="0" y1="50" x2="60" y2="50"></line></svg><text stroke="currentColor" x="0" y="15" font-size="1rem">500 Error</text><svg height="55" width="80" x="60" y="47.5" viewBox="0,0,24,24" stroke-width="1.5" stroke="currentColor" fill="none"><path stroke-linecap="round" stroke-linejoin="round" d="M7.5,21,3,16.5m0,0L7.5,12M3,16.5h13.5m0-13.5L21,7.5m0,0L16.5,12M21,7.5H7.5"></path></svg></svg><svg viewBox="0,0,200,150" x="4410" y="250" height="150" width="200"><svg width="200" viewBox="0,0,200,100"><polygon stroke-linejoin="round" style="fill: transparent;" stroke="currentColor" stroke-width="4" points="10,10,140,10,190,50,140,90,10,90,60,50"></polygon><line stroke="currentColor" stroke-width="4" x1="0" y1="50" x2="60" y2="50"></line><line stroke="currentColor" stroke-width="4" x1="190" y1="50" x2="200" y2="50"></line></svg><text stroke="currentColor" x="0" y="15" font-size="1rem">200 Response</text><svg height="55" width="80" x="60" y="47.5" viewBox="0,0,24,24" stroke-width="1.5" stroke="currentColor" fill="none"><path stroke-linecap="round" stroke-linejoin="round" d="M7.5,21,3,16.5m0,0L7.5,12M3,16.5h13.5m0-13.5L21,7.5m0,0L16.5,12M21,7.5H7.5"></path></svg></svg><path stroke-width="4" stroke="currentColor" fill="none" stroke-linecap="round" stroke-linejoin="round" d="M 4610 325,H 4710,L 4810 325"></path><text stroke="currentColor" x="4610" y="315" font-size="1rem"></text><svg viewBox="0,0,200,150" x="4810" y="250" height="150" width="200"><svg width="200" viewBox="0,0,200,100"><polygon stroke-linejoin="round" style="fill: transparent;" stroke="currentColor" stroke-width="4" points="10,10,140,10,190,33.333333333333336,140,50,190,66.66666666666667,140,90,10,90,60,50"></polygon><line stroke="currentColor" stroke-width="4" x1="0" y1="50" x2="60" y2="50"></line><line stroke="currentColor" stroke-width="4" x1="190" y1="33.333333333333336" x2="200" y2="33.333333333333336"></line><line stroke="currentColor" stroke-width="4" x1="190" y1="66.66666666666667" x2="200" y2="66.66666666666667"></line><svg height="16.666666666666668" width="33.333333333333336" x="135" y="22.5" viewBox="0,0,24,24" stroke-width="3" stroke="currentColor" fill="none"><path stroke-linecap="round" stroke-linejoin="round" d="m4.5,12.75,6,6,9-13.5"></path></svg><svg height="16.666666666666668" width="33.333333333333336" x="135" y="60" viewBox="0,0,24,24" stroke-width="3" stroke="currentColor" fill="none"><path stroke-linecap="round" stroke-linejoin="round" d="M6,18,18,6M6,6l12,12"></path></svg></svg><text stroke="currentColor" x="0" y="15" font-size="1rem">Parse JSON</text><svg height="55" width="80" x="60" y="47.5" viewBox="0,0,24,24" stroke-width="1.5" stroke="currentColor" fill="none"><path stroke-linecap="round" stroke-linejoin="round" d="M12,9v3.75m-9.303,3.376c-.866,1.5.217,3.374,1.948,3.374h14.71c1.73,0,2.813-1.874,1.948-3.374L13.949,3.378c-.866-1.5-3.032-1.5-3.898,0L2.697,16.126ZM12,15.75h.007v.008H12v-.008Z"></path></svg></svg><path stroke-width="4" stroke="currentColor" fill="none" stroke-linecap="round" stroke-linejoin="round" d="M 5010 308.3,H 5110,L 5210 325"></path><text stroke="currentColor" x="5010" y="298.3" font-size="1rem"></text><path stroke-width="4" stroke="currentColor" fill="none" stroke-linecap="round" stroke-linejoin="round" d="M 5010 341.7,H 5110,L 5210 325"></path><text stroke="currentColor" x="5010" y="331.7" font-size="1rem"></text><svg viewBox="0,0,200,150" x="5210" y="250" height="150" width="200"><svg width="200" viewBox="0,0,200,100"><polygon stroke-linejoin="round" style="fill: transparent;" stroke="currentColor" stroke-width="4" points="10,10,140,10,190,10,190,90,140,90,10,90,60,50"></polygon><line stroke="currentColor" stroke-width="4" x1="0" y1="50" x2="60" y2="50"></line></svg><text stroke="currentColor" x="0" y="15" font-size="1rem">Render HTML</text><svg height="55" width="80" x="60" y="47.5" viewBox="0,0,24,24" stroke-width="1.5" stroke="currentColor" fill="none"><path stroke-linecap="round" stroke-linejoin="round" d="M7.5,21,3,16.5m0,0L7.5,12M3,16.5h13.5m0-13.5L21,7.5m0,0L16.5,12M21,7.5H7.5"></path></svg></svg></svg>