<svg xmlns="http://www.w3.org/2000/svg" height="1650" width="3100" viewBox="0,0,3100,1650"><svg viewBox="0,0,200,150" x="50" y="450" height="750" width="1000"><svg width="200" viewBox="0,0,200,100"><polygon stroke-linejoin="round" style="fill: transparent;" stroke="currentColor" stroke-width="4" points="10,10,140,10,190,50,140,90,10,90,60,50"></polygon><line stroke="currentColor" stroke-width="4" x1="0" y1="50" x2="60" y2="50"></line><line stroke="currentColor" stroke-width="4" x1="190" y1="50" x2="200" y2="50"></line></svg><text stroke="currentColor" x="0" y="15" font-size="1rem">Parse HTML</text><svg height="55" width="80" x="60" y="47.5" viewBox="0,0,24,24" stroke-width="1.5" stroke="currentColor" fill="none"><path stroke-linecap="round" stroke-linejoin="round" d="M7.5,21,3,16.5m0,0L7.5,12M3,16.5h13.5m0-13.5L21,7.5m0,0L16.5,12M21,7.5H7.5"></path></svg></svg><path stroke-width="20" stroke="currentColor" fill="none" stroke-linecap="round" stroke-linejoin="round" d="M 1050 825,H 1550,L 2050 425"></path><text stroke="currentColor" x="1050" y="815" font-size="1rem"></text><path stroke-width="20" stroke="currentColor" fill="none" stroke-linecap="round" stroke-linejoin="round" d="M 1050 825,H 1550,L 2050 1225"></path><text stroke="currentColor" x="1050" y="815" font-size="1rem"></text><svg viewBox="0,0,200,150" x="2050" y="50" height="750" width="1000"><svg width="200" viewBox="0,0,200,100"><polygon stroke-linejoin="round" style="fill: transparent;" stroke="currentColor" stroke-width="4" points="10,10,140,10,190,50,140,90,10,90,60,50"></polygon><line stroke="currentColor" stroke-width="4" x1="0" y1="50" x2="60" y2="50"></line><line stroke="currentColor" stroke-width="4" x1="190" y1="50" x2="200" y2="50"></line></svg><text stroke="currentColor" x="0" y="15" font-size="1rem">GET styles.css</text><svg height="55" width="80" x="60" y="47.5" viewBox="0,0,24,24" stroke-width="1.5" stroke="currentColor" fill="none"><path stroke-linecap="round" stroke-linejoin="round" d="M7.5,21,3,16.5m0,0L7.5,12M3,16.5h13.5m0-13.5L21,7.5m0,0L16.5,12M21,7.5H7.5"></path></svg></svg><path stroke-width="20" stroke="currentColor" fill="none" stroke-linecap="round" stroke-linejoin="round" d="M 3050 425,H 3550,L 4050 -375"></path><text stroke="currentColor" x="3050" y="415" font-size="1rem"></text><path stroke-width="20" stroke="currentColor" fill="none" stroke-linecap="round" stroke-linejoin="round" d="M 3050 425,H 3550,L 4050 425"></path><text stroke="currentColor" x="3050" y="415" font-size="1rem"></text><svg viewBox="0,0,200,150" x="2050" y="850" height="750" width="1000"><svg width="200" viewBox="0,0,200,100"><polygon stroke-linejoin="round" style="fill: transparent;" stroke="currentColor" stroke-width="4" points="10,10,140,10,190,50,140,90,10,90,60,50"></polygon><line stroke="currentColor" stroke-width="4" x1="0" y1="50" x2="60" y2="50"></line><line stroke="currentColor" stroke-width="4" x1="190" y1="50" x2="200" y2="50"></line></svg><text stroke="currentColor" x="0" y="15" font-size="1rem">GET app.js</text><svg height="55" width="80" x="60" y="47.5" viewBox="0,0,24,24" stroke-width="1.5" stroke="currentColor" fill="none"><path stroke-linecap="round" stroke-linejoin="round" d="M7.5,21,3,16.5m0,0L7.5,12M3,16.5h13.5m0-13.5L21,7.5m0,0L16.5,12M21,7.5H7.5"></path></svg></svg><path stroke-width="20" stroke="currentColor" fill="none" stroke-linecap="round" stroke-linejoin="round" d="M 3050 1225,H 3550,L 4050 1225"></path><text stroke="currentColor" x="3050" y="1215" font-size="1rem"></text><path stroke-width="20" stroke="currentColor" fill="none" stroke-linecap="round" stroke-linejoin="round" d="M 3050 1225,H 3550,L 4050 2025"></path><text stroke="currentColor" x="3050" y="1215" font-size="1rem"></text></svg>