<svg xmlns="http://www.w3.org/2000/svg" height="850" width="3100" viewBox="0,0,3100,850"><svg viewBox="0,0,200,150" x="50" y="50" height="750" width="1000"><svg width="200" viewBox="0,0,200,100"><polygon stroke-linejoin="round" style="fill: transparent;" stroke="currentColor" stroke-width="4" points="10,10,140,10,190,33.333333333333336,140,50,190,66.66666666666667,140,90,10,90,60,50"></polygon><line stroke="currentColor" stroke-width="4" x1="0" y1="50" x2="60" y2="50"></line><line stroke="currentColor" stroke-width="4" x1="190" y1="33.333333333333336" x2="200" y2="33.333333333333336"></line><line stroke="currentColor" stroke-width="4" x1="190" y1="66.66666666666667" x2="200" y2="66.66666666666667"></line><svg height="16.666666666666668" width="33.333333333333336" x="135" y="22.5" viewBox="0,0,24,24" stroke-width="3" stroke="currentColor" fill="none"><path stroke-linecap="round" stroke-linejoin="round" d="m4.5,12.75,6,6,9-13.5"></path></svg><svg height="16.666666666666668" width="33.333333333333336" x="135" y="60" viewBox="0,0,24,24" stroke-width="3" stroke="currentColor" fill="none"><path stroke-linecap="round" stroke-linejoin="round" d="M6,18,18,6M6,6l12,12"></path></svg></svg><text stroke="currentColor" x="0" y="15" font-size="1rem">Parse JSON</text><svg height="55" width="80" x="60" y="47.5" viewBox="0,0,24,24" stroke-width="1.5" stroke="currentColor" fill="none"><path stroke-linecap="round" stroke-linejoin="round" d="M12,9v3.75m-9.303,3.376c-.866,1.5.217,3.374,1.948,3.374h14.71c1.73,0,2.813-1.874,1.948-3.374L13.949,3.378c-.866-1.5-3.032-1.5-3.898,0L2.697,16.126ZM12,15.75h.007v.008H12v-.008Z"></path></svg></svg><path stroke-width="20" stroke="currentColor" fill="none" stroke-linecap="round" stroke-linejoin="round" d="M 1050 341.5,H 1550,L 2050 425"></path><text stroke="currentColor" x="1050" y="331.5" font-size="1rem"></text><path stroke-width="20" stroke="currentColor" fill="none" stroke-linecap="round" stroke-linejoin="round" d="M 1050 508.5,H 1550,L 2050 425"></path><text stroke="currentColor" x="1050" y="498.5" font-size="1rem"></text><svg viewBox="0,0,200,150" x="2050" y="50" height="750" width="1000"><svg width="200" viewBox="0,0,200,100"><polygon stroke-linejoin="round" style="fill: transparent;" stroke="currentColor" stroke-width="4" points="10,10,140,10,190,10,190,90,140,90,10,90,60,50"></polygon><line stroke="currentColor" stroke-width="4" x1="0" y1="50" x2="60" y2="50"></line></svg><text stroke="currentColor" x="0" y="15" font-size="1rem">Render HTML</text><svg height="55" width="80" x="60" y="47.5" viewBox="0,0,24,24" stroke-width="1.5" stroke="currentColor" fill="none"><path stroke-linecap="round" stroke-linejoin="round" d="M7.5,21,3,16.5m0,0L7.5,12M3,16.5h13.5m0-13.5L21,7.5m0,0L16.5,12M21,7.5H7.5"></path></svg></svg></svg>