<svg xmlns="http://www.w3.org/2000/svg" height="710" width="1420" viewBox="0,0,1420,710"><text stroke="currentColor" x="50" y="60" font-size="1rem">Key</text><svg viewBox="0,0,200,150" x="50" y="110" height="150" width="200"><svg width="200" viewBox="0,0,200,100"><polygon stroke-linejoin="round" style="fill: transparent;" stroke="currentColor" stroke-width="4" points="10,10,140,10,190,50,140,90,10,90,60,50"></polygon><line stroke="currentColor" stroke-width="4" x1="0" y1="50" x2="60" y2="50"></line><line stroke="currentColor" stroke-width="4" x1="190" y1="50" x2="200" y2="50"></line></svg><text stroke="currentColor" x="0" y="15" font-size="1rem">Map</text><svg height="55" width="80" x="60" y="47.5" viewBox="0,0,24,24" stroke-width="1.5" stroke="currentColor"><path stroke-linecap="round" stroke-linejoin="round" d="M 0 6,H 18,M 0 18,H 18,M 12 0,L 24 12,M 12 24,L 24 12"></path></svg></svg><defs><pattern id="fill" patternUnits="userSpaceOnUse" patternTransform="rotate(45 0 0)" x="0" y="0" width="10" height="10"><line style="stroke: currentColor;" x1="0" x2="0" y1="0" y2="10"></line></pattern></defs><svg viewBox="0,0,200,150" x="300" y="110" height="150" width="200"><svg width="200" viewBox="0,0,200,100"><polygon stroke-linejoin="round" style="fill: url(#fill);" stroke="currentColor" stroke-width="4" points="10,10,140,10,190,50,140,90,10,90,60,50"></polygon><line stroke="currentColor" stroke-width="4" x1="0" y1="50" x2="60" y2="50"></line><line stroke="currentColor" stroke-width="4" x1="190" y1="50" x2="200" y2="50"></line></svg><text stroke="currentColor" x="0" y="15" font-size="1rem">Filter</text><svg height="55" width="80" x="60" y="47.5" viewBox="0,0,24,24" stroke-width="1.5" stroke="currentColor"></svg></svg><svg viewBox="0,0,200,150" x="550" y="110" height="150" width="200"><svg width="200" viewBox="0,0,200,100"><polygon stroke-linejoin="round" style="fill: transparent;" stroke="currentColor" stroke-width="4" points="10,10,140,10,190,50,140,90,10,90,60,50"></polygon><line stroke="currentColor" stroke-width="4" x1="0" y1="50" x2="60" y2="50"></line><line stroke="currentColor" stroke-width="4" x1="190" y1="50" x2="200" y2="50"></line></svg><text stroke="currentColor" x="0" y="15" font-size="1rem">Sort</text><svg height="55" width="80" x="60" y="47.5" viewBox="0,0,24,24" stroke-width="1.5" stroke="currentColor"><path stroke-linecap="round" stroke-linejoin="round" d="M3,7.5,7.5,3m0,0L12,7.5M7.5,3v13.5m13.5,0L16.5,21m0,0L12,16.5m4.5,4.5V7.5"></path></svg></svg><svg viewBox="0,0,200,150" x="800" y="110" height="150" width="200"><svg width="200" viewBox="0,0,200,100"><polygon stroke-linejoin="round" style="fill: transparent;" stroke="currentColor" stroke-width="4" points="10,10,140,10,190,50,140,90,10,90,60,50"></polygon><line stroke="currentColor" stroke-width="4" x1="0" y1="50" x2="60" y2="50"></line><line stroke="currentColor" stroke-width="4" x1="190" y1="50" x2="200" y2="50"></line></svg><text stroke="currentColor" x="0" y="15" font-size="1rem">Distribution</text><svg height="55" width="80" x="60" y="47.5" viewBox="0,0,24,24" stroke-width="1.5" stroke="currentColor" fill="none"><path stroke-linecap="round" stroke-linejoin="round" d="M 5 4,H 19,V 10,H 5,V 4,M 12 10,V 14,M 5 12,H 19,M 5 12,V 14,M 19 12,V 14,M 3 14,H 7,V 18,H 3,V 14,M 10 14,H 14,V 18,H 10,V 14,M 17 14,H 21,V 18,H 17,V 14"></path></svg></svg><svg viewBox="0,0,200,150" x="50" y="310" height="150" width="200"><svg width="200" viewBox="0,0,200,100"><polygon stroke-linejoin="round" style="fill: transparent;" stroke="currentColor" stroke-width="4" points="10,10,140,10,190,33.333333333333336,140,50,190,66.66666666666667,140,90,10,90,60,50"></polygon><line stroke="currentColor" stroke-width="4" x1="0" y1="50" x2="60" y2="50"></line><line stroke="currentColor" stroke-width="4" x1="190" y1="33.333333333333336" x2="200" y2="33.333333333333336"></line><line stroke="currentColor" stroke-width="4" x1="190" y1="66.66666666666667" x2="200" y2="66.66666666666667"></line><svg height="16.666666666666668" width="33.333333333333336" x="135" y="22.5" viewBox="0,0,24,24" stroke-width="3" stroke="currentColor" fill="none"><path stroke-linecap="round" stroke-linejoin="round" d="m4.5,12.75,6,6,9-13.5"></path></svg><svg height="16.666666666666668" width="33.333333333333336" x="135" y="60" viewBox="0,0,24,24" stroke-width="3" stroke="currentColor" fill="none"><path stroke-linecap="round" stroke-linejoin="round" d="M6,18,18,6M6,6l12,12"></path></svg></svg><text stroke="currentColor" x="0" y="15" font-size="1rem">Validate</text><svg height="55" width="80" x="60" y="47.5" viewBox="0,0,24,24" stroke-width="1.5" stroke="currentColor" fill="none"><path stroke-linecap="round" stroke-linejoin="round" d="M12,9v3.75m-9.303,3.376c-.866,1.5.217,3.374,1.948,3.374h14.71c1.73,0,2.813-1.874,1.948-3.374L13.949,3.378c-.866-1.5-3.032-1.5-3.898,0L2.697,16.126ZM12,15.75h.007v.008H12v-.008Z"></path></svg></svg><svg viewBox="0,0,200,150" x="300" y="310" height="150" width="200"><svg width="200" viewBox="0,0,200,100"><polygon stroke-linejoin="round" style="fill: transparent;" stroke="currentColor" stroke-width="4" points="10,10,140,10,190,33.333333333333336,140,50,190,66.66666666666667,140,90,10,90,60,50"></polygon><line stroke="currentColor" stroke-width="4" x1="0" y1="50" x2="60" y2="50"></line><line stroke="currentColor" stroke-width="4" x1="190" y1="33.333333333333336" x2="200" y2="33.333333333333336"></line><line stroke="currentColor" stroke-width="4" x1="190" y1="66.66666666666667" x2="200" y2="66.66666666666667"></line><svg height="16.666666666666668" width="33.333333333333336" x="135" y="22.5" viewBox="0,0,24,24" stroke-width="3" stroke="currentColor" fill="none"><path stroke-linecap="round" stroke-linejoin="round" d="m4.5,12.75,6,6,9-13.5"></path></svg><svg height="16.666666666666668" width="33.333333333333336" x="135" y="60" viewBox="0,0,24,24" stroke-width="3" stroke="currentColor" fill="none"><path stroke-linecap="round" stroke-linejoin="round" d="M6,18,18,6M6,6l12,12"></path></svg></svg><text stroke="currentColor" x="0" y="15" font-size="1rem">I/O</text><svg height="55" width="80" x="60" y="47.5" viewBox="0,0,24,24" stroke-width="1.5" stroke="currentColor" fill="none"><path stroke-linecap="round" stroke-linejoin="round" d="M7.5,21,3,16.5m0,0L7.5,12M3,16.5h13.5m0-13.5L21,7.5m0,0L16.5,12M21,7.5H7.5"></path></svg></svg><svg viewBox="0,0,200,150" x="550" y="310" height="150" width="200"><svg width="200" viewBox="0,0,200,100"><polygon stroke-linejoin="round" style="fill: transparent;" stroke="currentColor" stroke-width="4" points="10,10,140,10,190,33.333333333333336,140,50,190,66.66666666666667,140,90,10,90,60,50"></polygon><line stroke="currentColor" stroke-width="4" x1="0" y1="50" x2="60" y2="50"></line><line stroke="currentColor" stroke-width="4" x1="190" y1="33.333333333333336" x2="200" y2="33.333333333333336"></line><line stroke="currentColor" stroke-width="4" x1="190" y1="66.66666666666667" x2="200" y2="66.66666666666667"></line><svg height="16.666666666666668" width="33.333333333333336" x="135" y="22.5" viewBox="0,0,24,24" stroke-width="3" stroke="currentColor" fill="none"><path stroke-linecap="round" stroke-linejoin="round" d="m4.5,12.75,6,6,9-13.5"></path></svg><svg height="16.666666666666668" width="33.333333333333336" x="135" y="60" viewBox="0,0,24,24" stroke-width="3" stroke="currentColor" fill="none"><path stroke-linecap="round" stroke-linejoin="round" d="M6,18,18,6M6,6l12,12"></path></svg></svg><text stroke="currentColor" x="0" y="15" font-size="1rem">Authenticate</text><svg height="55" width="80" x="60" y="47.5" viewBox="0,0,24,24" stroke-width="1.5" stroke="currentColor" fill="none"><path stroke-linecap="round" stroke-linejoin="round" d="M15.75,6a3.75,3.75,0,1,1-7.5,0,3.75,3.75,0,0,1,7.5,0ZM4.501,20.118a7.5,7.5,0,0,1,14.998,0A17.933,17.933,0,0,1,12,21.75c-2.676,0-5.216-.584-7.499-1.632Z"></path></svg></svg><svg viewBox="0,0,200,150" x="800" y="310" height="150" width="200"><svg width="200" viewBox="0,0,200,100"><polygon stroke-linejoin="round" style="fill: transparent;" stroke="currentColor" stroke-width="4" points="10,10,140,10,190,33.333333333333336,140,50,190,66.66666666666667,140,90,10,90,60,50"></polygon><line stroke="currentColor" stroke-width="4" x1="0" y1="50" x2="60" y2="50"></line><line stroke="currentColor" stroke-width="4" x1="190" y1="33.333333333333336" x2="200" y2="33.333333333333336"></line><line stroke="currentColor" stroke-width="4" x1="190" y1="66.66666666666667" x2="200" y2="66.66666666666667"></line><svg height="16.666666666666668" width="33.333333333333336" x="135" y="22.5" viewBox="0,0,24,24" stroke-width="3" stroke="currentColor" fill="none"><path stroke-linecap="round" stroke-linejoin="round" d="m4.5,12.75,6,6,9-13.5"></path></svg><svg height="16.666666666666668" width="33.333333333333336" x="135" y="60" viewBox="0,0,24,24" stroke-width="3" stroke="currentColor" fill="none"><path stroke-linecap="round" stroke-linejoin="round" d="M6,18,18,6M6,6l12,12"></path></svg></svg><text stroke="currentColor" x="0" y="15" font-size="1rem">Authorize</text><svg height="55" width="80" x="60" y="47.5" viewBox="0,0,24,24" stroke-width="1.5" stroke="currentColor" fill="none"><path stroke-linecap="round" stroke-linejoin="round" d="M18.364,18.364A9,9,0,0,0,5.636,5.636m12.728,12.728A9,9,0,0,1,5.636,5.636m12.728,12.728L5.636,5.636"></path></svg></svg><svg viewBox="0,0,200,150" x="50" y="510" height="150" width="200"><svg width="200" viewBox="0,0,200,100"><polygon stroke-linejoin="round" style="fill: transparent;" stroke="currentColor" stroke-width="4" points="10,10,140,10,190,50,140,90,10,90"></polygon><line stroke="currentColor" stroke-width="4" x1="190" y1="50" x2="200" y2="50"></line></svg><text stroke="currentColor" x="0" y="15" font-size="1rem">Global State Read</text><svg height="55" width="80" x="60" y="47.5" viewBox="0,0,24,24" stroke-width="1.5" stroke="currentColor" fill="none"><path stroke-linecap="round" stroke-linejoin="round" d="M 0 3,H 24,V 12,H 0,V 3,M 0 12,V 18,H 6,V 12,M 6 18,H 12,V 12,M 12 18,H 18,V 12,M 18 18,H 24,V 12,M 5 6,H 7,V 8,H 5,V 6,M 11 6,H 13,V 8,H 11,V 6,M 17 6,H 19,V 8,H 17,V 6"></path></svg></svg><svg viewBox="0,0,200,150" x="300" y="510" height="150" width="200"><svg width="200" viewBox="0,0,200,100"><polygon stroke-linejoin="round" style="fill: transparent;" stroke="currentColor" stroke-width="4" points="10,10,140,10,190,10,190,90,140,90,10,90,60,50"></polygon><line stroke="currentColor" stroke-width="4" x1="0" y1="50" x2="60" y2="50"></line></svg><text stroke="currentColor" x="0" y="15" font-size="1rem">Global State Write</text><svg height="55" width="80" x="60" y="47.5" viewBox="0,0,24,24" stroke-width="1.5" stroke="currentColor" fill="none"><path stroke-linecap="round" stroke-linejoin="round" d="M 0 3,H 24,V 12,H 0,V 3,M 0 12,V 18,H 6,V 12,M 6 18,H 12,V 12,M 12 18,H 18,V 12,M 18 18,H 24,V 12,M 5 6,H 7,V 8,H 5,V 6,M 11 6,H 13,V 8,H 11,V 6,M 17 6,H 19,V 8,H 17,V 6"></path></svg></svg><svg viewBox="0,0,200,150" x="550" y="510" height="150" width="200"><svg width="200" viewBox="0,0,200,100"><polygon stroke-linejoin="round" style="fill: transparent;" stroke="currentColor" stroke-width="4" points="10,10,140,10,190,10,190,90,140,90,10,90,60,50"></polygon><line stroke="currentColor" stroke-width="4" x1="0" y1="50" x2="60" y2="50"></line></svg><text stroke="currentColor" x="0" y="15" font-size="1rem">Panic</text><svg height="55" width="80" x="60" y="47.5" viewBox="0,0,24,24" stroke-width="1.5" stroke="currentColor" fill="none"><path stroke-linecap="round" stroke-linejoin="round" d="M12,9v3.75m9-.75a9,9,0,1,1-18,0,9,9,0,0,1,18,0Zm-9,3.75h.008v.008H12v-.008Z"></path></svg></svg></svg>