<svg xmlns="http://www.w3.org/2000/svg" height="650" width="3020" viewBox="0,0,3020,650"><svg viewBox="0,0,200,150" x="10" y="250" height="150" width="200"><svg width="200" viewBox="0,0,200,100"><polygon stroke-linejoin="round" style="fill: transparent;" stroke="currentColor" stroke-width="4" points="10,10,140,10,190,50,140,90,10,90"></polygon><line stroke="currentColor" stroke-width="4" x1="190" y1="50" x2="200" y2="50"></line></svg><text stroke="currentColor" x="0" y="1rem" font-size="1rem">Incoming HTTP Request</text><svg height="55" width="80" x="60" y="47.5" viewBox="0,0,24,24" stroke-width="1.5" stroke="currentColor" fill="none"><path stroke-linecap="round" stroke-linejoin="round" d="M20.25,6.375c0,2.278-3.694,4.125-8.25,4.125S3.75,8.653,3.75,6.375m16.5,0c0-2.278-3.694-4.125-8.25-4.125S3.75,4.097,3.75,6.375m16.5,0v11.25c0,2.278-3.694,4.125-8.25,4.125s-8.25-1.847-8.25-4.125V6.375m16.5,0v3.75m-16.5-3.75v3.75m16.5,0v3.75C20.25,16.153,16.556,18,12,18s-8.25-1.847-8.25-4.125v-3.75m16.5,0c0,2.278-3.694,4.125-8.25,4.125s-8.25-1.847-8.25-4.125"></path></svg></svg><path stroke-width="4" stroke="currentColor" fill="none" stroke-linecap="round" stroke-linejoin="round" d="M 210 325,H 310,L 410 325"></path><text stroke="currentColor" x="210" y="315" font-size="1rem"></text><svg viewBox="0,0,200,150" x="410" y="250" height="150" width="200"><svg width="200" viewBox="0,0,200,100"><polygon stroke-linejoin="round" style="fill: transparent;" stroke="currentColor" stroke-width="4" points="10,10,140,10,190,33.333333333333336,140,50,190,66.66666666666667,140,90,10,90,60,50"></polygon><line stroke="currentColor" stroke-width="4" x1="0" y1="50" x2="60" y2="50"></line><line stroke="currentColor" stroke-width="4" x1="190" y1="33.333333333333336" x2="200" y2="33.333333333333336"></line><line stroke="currentColor" stroke-width="4" x1="190" y1="66.66666666666667" x2="200" y2="66.66666666666667"></line><svg height="16.666666666666668" width="33.333333333333336" x="135" y="22.5" viewBox="0,0,24,24" stroke-width="3" stroke="currentColor" fill="none"><path stroke-linecap="round" stroke-linejoin="round" d="m4.5,12.75,6,6,9-13.5"></path></svg><svg height="16.666666666666668" width="33.333333333333336" x="135" y="60" viewBox="0,0,24,24" stroke-width="3" stroke="currentColor" fill="none"><path stroke-linecap="round" stroke-linejoin="round" d="M6,18,18,6M6,6l12,12"></path></svg></svg><text stroke="currentColor" x="0" y="1rem" font-size="1rem">Authenticate</text><svg height="55" width="80" x="60" y="47.5" viewBox="0,0,24,24" stroke-width="1.5" stroke="currentColor" fill="none"><path stroke-linecap="round" stroke-linejoin="round" d="M15.75,6a3.75,3.75,0,1,1-7.5,0,3.75,3.75,0,0,1,7.5,0ZM4.501,20.118a7.5,7.5,0,0,1,14.998,0A17.933,17.933,0,0,1,12,21.75c-2.676,0-5.216-.584-7.499-1.632Z"></path></svg></svg><path stroke-width="4" stroke="currentColor" fill="none" stroke-linecap="round" stroke-linejoin="round" d="M 610 308.3,H 710,L 810 245"></path><text stroke="currentColor" x="610" y="298.3" font-size="1rem"></text><path stroke-width="4" stroke="currentColor" fill="none" stroke-linecap="round" stroke-linejoin="round" d="M 610 341.7,H 710,L 810 405"></path><text stroke="currentColor" x="610" y="331.7" font-size="1rem"></text><svg viewBox="0,0,200,150" x="810" y="170" height="150" width="200"><svg width="200" viewBox="0,0,200,100"><polygon stroke-linejoin="round" style="fill: transparent;" stroke="currentColor" stroke-width="4" points="10,10,140,10,190,50,140,90,10,90,60,50"></polygon><line stroke="currentColor" stroke-width="4" x1="0" y1="50" x2="60" y2="50"></line><line stroke="currentColor" stroke-width="4" x1="190" y1="50" x2="200" y2="50"></line></svg><text stroke="currentColor" x="0" y="1rem" font-size="1rem">Router</text><svg height="55" width="80" x="60" y="47.5" viewBox="0,0,24,24" stroke-width="1.5" stroke="currentColor" fill="none"><path stroke-linecap="round" stroke-linejoin="round" d="M 5 4,H 19,V 10,H 5,V 4,M 12 10,V 14,M 5 12,H 19,M 5 12,V 14,M 19 12,V 14,M 3 14,H 7,V 18,H 3,V 14,M 10 14,H 14,V 18,H 10,V 14,M 17 14,H 21,V 18,H 17,V 14"></path></svg></svg><path stroke-width="4" stroke="currentColor" fill="none" stroke-linecap="round" stroke-linejoin="round" d="M 1010 245,H 1110,L 1210 165"></path><text stroke="currentColor" x="1010" y="235" font-size="1rem"></text><path stroke-width="4" stroke="currentColor" fill="none" stroke-linecap="round" stroke-linejoin="round" d="M 1010 245,H 1110,L 1210 325"></path><text stroke="currentColor" x="1010" y="235" font-size="1rem"></text><path stroke-width="4" stroke="currentColor" fill="none" stroke-linecap="round" stroke-linejoin="round" d="M 1010 245,H 1110,L 1210 485"></path><text stroke="currentColor" x="1010" y="235" font-size="1rem"></text><svg viewBox="0,0,200,150" x="810" y="330" height="150" width="200"><svg width="200" viewBox="0,0,200,100"><polygon stroke-linejoin="round" style="fill: transparent;" stroke="currentColor" stroke-width="4" points="10,10,140,10,190,10,190,90,140,90,10,90,60,50"></polygon><line stroke="currentColor" stroke-width="4" x1="0" y1="50" x2="60" y2="50"></line></svg><text stroke="currentColor" x="0" y="1rem" font-size="1rem">401 Error</text><svg height="55" width="80" x="60" y="47.5" viewBox="0,0,24,24" stroke-width="1.5" stroke="currentColor" fill="none"><path stroke-linecap="round" stroke-linejoin="round" d="M20.25,6.375c0,2.278-3.694,4.125-8.25,4.125S3.75,8.653,3.75,6.375m16.5,0c0-2.278-3.694-4.125-8.25-4.125S3.75,4.097,3.75,6.375m16.5,0v11.25c0,2.278-3.694,4.125-8.25,4.125s-8.25-1.847-8.25-4.125V6.375m16.5,0v3.75m-16.5-3.75v3.75m16.5,0v3.75C20.25,16.153,16.556,18,12,18s-8.25-1.847-8.25-4.125v-3.75m16.5,0c0,2.278-3.694,4.125-8.25,4.125s-8.25-1.847-8.25-4.125"></path></svg></svg><svg viewBox="0,0,200,150" x="1210" y="90" height="150" width="200"><svg width="200" viewBox="0,0,200,100"><line stroke="currentColor" stroke-width="4" x1="60" y1="50" x2="190" y2="50"></line><line stroke="currentColor" stroke-width="4" x1="0" y1="50" x2="60" y2="50"></line><line stroke="currentColor" stroke-width="4" x1="190" y1="50" x2="200" y2="50"></line></svg><text stroke="currentColor" x="0" y="1rem" font-size="1rem">/patients</text><svg height="55" width="80" x="60" y="47.5" viewBox="0,0,24,24" stroke-width="1.5" stroke="currentColor"></svg></svg><path stroke-width="4" stroke="currentColor" fill="none" stroke-linecap="round" stroke-linejoin="round" d="M 1410 165,H 1510,L 1610 165"></path><text stroke="currentColor" x="1410" y="155" font-size="1rem"></text><svg viewBox="0,0,200,150" x="1210" y="250" height="150" width="200"><svg width="200" viewBox="0,0,200,100"><line stroke="currentColor" stroke-width="4" x1="60" y1="50" x2="190" y2="50"></line><line stroke="currentColor" stroke-width="4" x1="0" y1="50" x2="60" y2="50"></line><line stroke="currentColor" stroke-width="4" x1="190" y1="50" x2="200" y2="50"></line></svg><text stroke="currentColor" x="0" y="1rem" font-size="1rem">/patients/{id}</text><svg height="55" width="80" x="60" y="47.5" viewBox="0,0,24,24" stroke-width="1.5" stroke="currentColor"></svg></svg><path stroke-width="4" stroke="currentColor" fill="none" stroke-linecap="round" stroke-linejoin="round" d="M 1410 325,H 1510,L 1610 325"></path><text stroke="currentColor" x="1410" y="315" font-size="1rem"></text><svg viewBox="0,0,200,150" x="1210" y="410" height="150" width="200"><svg width="200" viewBox="0,0,200,100"><line stroke="currentColor" stroke-width="4" x1="60" y1="50" x2="190" y2="50"></line><line stroke="currentColor" stroke-width="4" x1="0" y1="50" x2="60" y2="50"></line><line stroke="currentColor" stroke-width="4" x1="190" y1="50" x2="200" y2="50"></line></svg><text stroke="currentColor" x="0" y="1rem" font-size="1rem"></text><svg height="55" width="80" x="60" y="47.5" viewBox="0,0,24,24" stroke-width="1.5" stroke="currentColor"></svg></svg><path stroke-width="4" stroke="currentColor" fill="none" stroke-linecap="round" stroke-linejoin="round" d="M 1410 485,H 1510,L 1610 485"></path><text stroke="currentColor" x="1410" y="475" font-size="1rem"></text><svg viewBox="0,0,200,150" x="1610" y="90" height="150" width="200"><svg width="200" viewBox="0,0,200,100"><polygon stroke-linejoin="round" style="fill: transparent;" stroke="currentColor" stroke-width="4" points="10,10,140,10,190,33.333333333333336,140,50,190,66.66666666666667,140,90,10,90,60,50"></polygon><line stroke="currentColor" stroke-width="4" x1="0" y1="50" x2="60" y2="50"></line><line stroke="currentColor" stroke-width="4" x1="190" y1="33.333333333333336" x2="200" y2="33.333333333333336"></line><line stroke="currentColor" stroke-width="4" x1="190" y1="66.66666666666667" x2="200" y2="66.66666666666667"></line><svg height="16.666666666666668" width="33.333333333333336" x="135" y="22.5" viewBox="0,0,24,24" stroke-width="3" stroke="currentColor" fill="none"><path stroke-linecap="round" stroke-linejoin="round" d="m4.5,12.75,6,6,9-13.5"></path></svg><svg height="16.666666666666668" width="33.333333333333336" x="135" y="60" viewBox="0,0,24,24" stroke-width="3" stroke="currentColor" fill="none"><path stroke-linecap="round" stroke-linejoin="round" d="M6,18,18,6M6,6l12,12"></path></svg></svg><text stroke="currentColor" x="0" y="1rem" font-size="1rem">Authorize</text><svg height="55" width="80" x="60" y="47.5" viewBox="0,0,24,24" stroke-width="1.5" stroke="currentColor" fill="none"><path stroke-linecap="round" stroke-linejoin="round" d="M18.364,18.364A9,9,0,0,0,5.636,5.636m12.728,12.728A9,9,0,0,1,5.636,5.636m12.728,12.728L5.636,5.636"></path></svg></svg><path stroke-width="4" stroke="currentColor" fill="none" stroke-linecap="round" stroke-linejoin="round" d="M 1810 148.3,H 1910,L 2010 85"></path><text stroke="currentColor" x="1810" y="138.3" font-size="1rem">success</text><path stroke-width="4" stroke="currentColor" fill="none" stroke-linecap="round" stroke-linejoin="round" d="M 1810 181.7,H 1910,L 2010 245"></path><text stroke="currentColor" x="1810" y="171.7" font-size="1rem">error</text><svg viewBox="0,0,200,150" x="1610" y="250" height="150" width="200"><svg width="200" viewBox="0,0,200,100"><polygon stroke-linejoin="round" style="fill: transparent;" stroke="currentColor" stroke-width="4" points="10,10,140,10,190,33.333333333333336,140,50,190,66.66666666666667,140,90,10,90,60,50"></polygon><line stroke="currentColor" stroke-width="4" x1="0" y1="50" x2="60" y2="50"></line><line stroke="currentColor" stroke-width="4" x1="190" y1="33.333333333333336" x2="200" y2="33.333333333333336"></line><line stroke="currentColor" stroke-width="4" x1="190" y1="66.66666666666667" x2="200" y2="66.66666666666667"></line><svg height="16.666666666666668" width="33.333333333333336" x="135" y="22.5" viewBox="0,0,24,24" stroke-width="3" stroke="currentColor" fill="none"><path stroke-linecap="round" stroke-linejoin="round" d="m4.5,12.75,6,6,9-13.5"></path></svg><svg height="16.666666666666668" width="33.333333333333336" x="135" y="60" viewBox="0,0,24,24" stroke-width="3" stroke="currentColor" fill="none"><path stroke-linecap="round" stroke-linejoin="round" d="M6,18,18,6M6,6l12,12"></path></svg></svg><text stroke="currentColor" x="0" y="1rem" font-size="1rem">Authorize</text><svg height="55" width="80" x="60" y="47.5" viewBox="0,0,24,24" stroke-width="1.5" stroke="currentColor" fill="none"><path stroke-linecap="round" stroke-linejoin="round" d="M18.364,18.364A9,9,0,0,0,5.636,5.636m12.728,12.728A9,9,0,0,1,5.636,5.636m12.728,12.728L5.636,5.636"></path></svg></svg><path stroke-width="4" stroke="currentColor" fill="none" stroke-linecap="round" stroke-linejoin="round" d="M 1810 308.3,H 1910,L 2010 405"></path><text stroke="currentColor" x="1810" y="298.3" font-size="1rem">success</text><path stroke-width="4" stroke="currentColor" fill="none" stroke-linecap="round" stroke-linejoin="round" d="M 1810 341.7,H 1910,L 2010 565"></path><text stroke="currentColor" x="1810" y="331.7" font-size="1rem">error</text><svg viewBox="0,0,200,150" x="1610" y="410" height="150" width="200"><svg width="200" viewBox="0,0,200,100"><polygon stroke-linejoin="round" style="fill: transparent;" stroke="currentColor" stroke-width="4" points="10,10,140,10,190,10,190,90,140,90,10,90,60,50"></polygon><line stroke="currentColor" stroke-width="4" x1="0" y1="50" x2="60" y2="50"></line></svg><text stroke="currentColor" x="0" y="1rem" font-size="1rem">404 Error</text><svg height="55" width="80" x="60" y="47.5" viewBox="0,0,24,24" stroke-width="1.5" stroke="currentColor" fill="none"><path stroke-linecap="round" stroke-linejoin="round" d="M20.25,6.375c0,2.278-3.694,4.125-8.25,4.125S3.75,8.653,3.75,6.375m16.5,0c0-2.278-3.694-4.125-8.25-4.125S3.75,4.097,3.75,6.375m16.5,0v11.25c0,2.278-3.694,4.125-8.25,4.125s-8.25-1.847-8.25-4.125V6.375m16.5,0v3.75m-16.5-3.75v3.75m16.5,0v3.75C20.25,16.153,16.556,18,12,18s-8.25-1.847-8.25-4.125v-3.75m16.5,0c0,2.278-3.694,4.125-8.25,4.125s-8.25-1.847-8.25-4.125"></path></svg></svg><svg viewBox="0,0,200,150" x="2010" y="10" height="150" width="200"><svg width="200" viewBox="0,0,200,100"><polygon stroke-linejoin="round" style="fill: transparent;" stroke="currentColor" stroke-width="4" points="10,10,140,10,190,33.333333333333336,140,50,190,66.66666666666667,140,90,10,90,60,50"></polygon><line stroke="currentColor" stroke-width="4" x1="0" y1="50" x2="60" y2="50"></line><line stroke="currentColor" stroke-width="4" x1="190" y1="33.333333333333336" x2="200" y2="33.333333333333336"></line><line stroke="currentColor" stroke-width="4" x1="190" y1="66.66666666666667" x2="200" y2="66.66666666666667"></line><svg height="16.666666666666668" width="33.333333333333336" x="135" y="22.5" viewBox="0,0,24,24" stroke-width="3" stroke="currentColor" fill="none"><path stroke-linecap="round" stroke-linejoin="round" d="m4.5,12.75,6,6,9-13.5"></path></svg><svg height="16.666666666666668" width="33.333333333333336" x="135" y="60" viewBox="0,0,24,24" stroke-width="3" stroke="currentColor" fill="none"><path stroke-linecap="round" stroke-linejoin="round" d="M6,18,18,6M6,6l12,12"></path></svg></svg><text stroke="currentColor" x="0" y="1rem" font-size="1rem">Get Patients Table Data</text><svg height="55" width="80" x="60" y="47.5" viewBox="0,0,24,24" stroke-width="1.5" stroke="currentColor" fill="none"><path stroke-linecap="round" stroke-linejoin="round" d="M20.25,6.375c0,2.278-3.694,4.125-8.25,4.125S3.75,8.653,3.75,6.375m16.5,0c0-2.278-3.694-4.125-8.25-4.125S3.75,4.097,3.75,6.375m16.5,0v11.25c0,2.278-3.694,4.125-8.25,4.125s-8.25-1.847-8.25-4.125V6.375m16.5,0v3.75m-16.5-3.75v3.75m16.5,0v3.75C20.25,16.153,16.556,18,12,18s-8.25-1.847-8.25-4.125v-3.75m16.5,0c0,2.278-3.694,4.125-8.25,4.125s-8.25-1.847-8.25-4.125"></path></svg></svg><path stroke-width="4" stroke="currentColor" fill="none" stroke-linecap="round" stroke-linejoin="round" d="M 2210 68.3,H 2310,L 2410 85"></path><text stroke="currentColor" x="2210" y="58.3" font-size="1rem"></text><path stroke-width="4" stroke="currentColor" fill="none" stroke-linecap="round" stroke-linejoin="round" d="M 2210 101.7,H 2310,L 2410 245"></path><text stroke="currentColor" x="2210" y="91.7" font-size="1rem"></text><svg viewBox="0,0,200,150" x="2010" y="170" height="150" width="200"><svg width="200" viewBox="0,0,200,100"><polygon stroke-linejoin="round" style="fill: transparent;" stroke="currentColor" stroke-width="4" points="10,10,140,10,190,10,190,90,140,90,10,90,60,50"></polygon><line stroke="currentColor" stroke-width="4" x1="0" y1="50" x2="60" y2="50"></line></svg><text stroke="currentColor" x="0" y="1rem" font-size="1rem">403 Error</text><svg height="55" width="80" x="60" y="47.5" viewBox="0,0,24,24" stroke-width="1.5" stroke="currentColor" fill="none"><path stroke-linecap="round" stroke-linejoin="round" d="M20.25,6.375c0,2.278-3.694,4.125-8.25,4.125S3.75,8.653,3.75,6.375m16.5,0c0-2.278-3.694-4.125-8.25-4.125S3.75,4.097,3.75,6.375m16.5,0v11.25c0,2.278-3.694,4.125-8.25,4.125s-8.25-1.847-8.25-4.125V6.375m16.5,0v3.75m-16.5-3.75v3.75m16.5,0v3.75C20.25,16.153,16.556,18,12,18s-8.25-1.847-8.25-4.125v-3.75m16.5,0c0,2.278-3.694,4.125-8.25,4.125s-8.25-1.847-8.25-4.125"></path></svg></svg><svg viewBox="0,0,200,150" x="2010" y="330" height="150" width="200"><svg width="200" viewBox="0,0,200,100"><polygon stroke-linejoin="round" style="fill: transparent;" stroke="currentColor" stroke-width="4" points="10,10,140,10,190,33.333333333333336,140,50,190,66.66666666666667,140,90,10,90,60,50"></polygon><line stroke="currentColor" stroke-width="4" x1="0" y1="50" x2="60" y2="50"></line><line stroke="currentColor" stroke-width="4" x1="190" y1="33.333333333333336" x2="200" y2="33.333333333333336"></line><line stroke="currentColor" stroke-width="4" x1="190" y1="66.66666666666667" x2="200" y2="66.66666666666667"></line><svg height="16.666666666666668" width="33.333333333333336" x="135" y="22.5" viewBox="0,0,24,24" stroke-width="3" stroke="currentColor" fill="none"><path stroke-linecap="round" stroke-linejoin="round" d="m4.5,12.75,6,6,9-13.5"></path></svg><svg height="16.666666666666668" width="33.333333333333336" x="135" y="60" viewBox="0,0,24,24" stroke-width="3" stroke="currentColor" fill="none"><path stroke-linecap="round" stroke-linejoin="round" d="M6,18,18,6M6,6l12,12"></path></svg></svg><text stroke="currentColor" x="0" y="1rem" font-size="1rem">Get Patient Table Record</text><svg height="55" width="80" x="60" y="47.5" viewBox="0,0,24,24" stroke-width="1.5" stroke="currentColor" fill="none"><path stroke-linecap="round" stroke-linejoin="round" d="M20.25,6.375c0,2.278-3.694,4.125-8.25,4.125S3.75,8.653,3.75,6.375m16.5,0c0-2.278-3.694-4.125-8.25-4.125S3.75,4.097,3.75,6.375m16.5,0v11.25c0,2.278-3.694,4.125-8.25,4.125s-8.25-1.847-8.25-4.125V6.375m16.5,0v3.75m-16.5-3.75v3.75m16.5,0v3.75C20.25,16.153,16.556,18,12,18s-8.25-1.847-8.25-4.125v-3.75m16.5,0c0,2.278-3.694,4.125-8.25,4.125s-8.25-1.847-8.25-4.125"></path></svg></svg><path stroke-width="4" stroke="currentColor" fill="none" stroke-linecap="round" stroke-linejoin="round" d="M 2210 388.3,H 2310,L 2410 405"></path><text stroke="currentColor" x="2210" y="378.3" font-size="1rem"></text><path stroke-width="4" stroke="currentColor" fill="none" stroke-linecap="round" stroke-linejoin="round" d="M 2210 421.7,H 2310,L 2410 565"></path><text stroke="currentColor" x="2210" y="411.7" font-size="1rem"></text><svg viewBox="0,0,200,150" x="2010" y="490" height="150" width="200"><svg width="200" viewBox="0,0,200,100"><polygon stroke-linejoin="round" style="fill: transparent;" stroke="currentColor" stroke-width="4" points="10,10,140,10,190,10,190,90,140,90,10,90,60,50"></polygon><line stroke="currentColor" stroke-width="4" x1="0" y1="50" x2="60" y2="50"></line></svg><text stroke="currentColor" x="0" y="1rem" font-size="1rem">403 Error</text><svg height="55" width="80" x="60" y="47.5" viewBox="0,0,24,24" stroke-width="1.5" stroke="currentColor" fill="none"><path stroke-linecap="round" stroke-linejoin="round" d="M20.25,6.375c0,2.278-3.694,4.125-8.25,4.125S3.75,8.653,3.75,6.375m16.5,0c0-2.278-3.694-4.125-8.25-4.125S3.75,4.097,3.75,6.375m16.5,0v11.25c0,2.278-3.694,4.125-8.25,4.125s-8.25-1.847-8.25-4.125V6.375m16.5,0v3.75m-16.5-3.75v3.75m16.5,0v3.75C20.25,16.153,16.556,18,12,18s-8.25-1.847-8.25-4.125v-3.75m16.5,0c0,2.278-3.694,4.125-8.25,4.125s-8.25-1.847-8.25-4.125"></path></svg></svg><svg viewBox="0,0,200,150" x="2410" y="10" height="150" width="200"><svg width="200" viewBox="0,0,200,100"><polygon stroke-linejoin="round" style="fill: transparent;" stroke="currentColor" stroke-width="4" points="10,10,140,10,190,50,140,90,10,90,60,50"></polygon><line stroke="currentColor" stroke-width="4" x1="0" y1="50" x2="60" y2="50"></line><line stroke="currentColor" stroke-width="4" x1="190" y1="50" x2="200" y2="50"></line></svg><text stroke="currentColor" x="0" y="1rem" font-size="1rem">Map to JSON</text><svg height="55" width="80" x="60" y="47.5" viewBox="0,0,24,24" stroke-width="1.5" stroke="currentColor"><path stroke-linecap="round" stroke-linejoin="round" d="M 0 6,H 18,M 0 18,H 18,M 12 0,L 24 12,M 12 24,L 24 12"></path></svg></svg><path stroke-width="4" stroke="currentColor" fill="none" stroke-linecap="round" stroke-linejoin="round" d="M 2610 85,H 2710,L 2810 245"></path><text stroke="currentColor" x="2610" y="75" font-size="1rem"></text><svg viewBox="0,0,200,150" x="2410" y="170" height="150" width="200"><svg width="200" viewBox="0,0,200,100"><polygon stroke-linejoin="round" style="fill: transparent;" stroke="currentColor" stroke-width="4" points="10,10,140,10,190,10,190,90,140,90,10,90,60,50"></polygon><line stroke="currentColor" stroke-width="4" x1="0" y1="50" x2="60" y2="50"></line></svg><text stroke="currentColor" x="0" y="1rem" font-size="1rem">500 Error</text><svg height="55" width="80" x="60" y="47.5" viewBox="0,0,24,24" stroke-width="1.5" stroke="currentColor" fill="none"><path stroke-linecap="round" stroke-linejoin="round" d="M20.25,6.375c0,2.278-3.694,4.125-8.25,4.125S3.75,8.653,3.75,6.375m16.5,0c0-2.278-3.694-4.125-8.25-4.125S3.75,4.097,3.75,6.375m16.5,0v11.25c0,2.278-3.694,4.125-8.25,4.125s-8.25-1.847-8.25-4.125V6.375m16.5,0v3.75m-16.5-3.75v3.75m16.5,0v3.75C20.25,16.153,16.556,18,12,18s-8.25-1.847-8.25-4.125v-3.75m16.5,0c0,2.278-3.694,4.125-8.25,4.125s-8.25-1.847-8.25-4.125"></path></svg></svg><svg viewBox="0,0,200,150" x="2410" y="330" height="150" width="200"><svg width="200" viewBox="0,0,200,100"><polygon stroke-linejoin="round" style="fill: transparent;" stroke="currentColor" stroke-width="4" points="10,10,140,10,190,50,140,90,10,90,60,50"></polygon><line stroke="currentColor" stroke-width="4" x1="0" y1="50" x2="60" y2="50"></line><line stroke="currentColor" stroke-width="4" x1="190" y1="50" x2="200" y2="50"></line></svg><text stroke="currentColor" x="0" y="1rem" font-size="1rem">Map to JSON</text><svg height="55" width="80" x="60" y="47.5" viewBox="0,0,24,24" stroke-width="1.5" stroke="currentColor"><path stroke-linecap="round" stroke-linejoin="round" d="M 0 6,H 18,M 0 18,H 18,M 12 0,L 24 12,M 12 24,L 24 12"></path></svg></svg><path stroke-width="4" stroke="currentColor" fill="none" stroke-linecap="round" stroke-linejoin="round" d="M 2610 405,H 2710,L 2810 405"></path><text stroke="currentColor" x="2610" y="395" font-size="1rem"></text><svg viewBox="0,0,200,150" x="2410" y="490" height="150" width="200"><svg width="200" viewBox="0,0,200,100"><polygon stroke-linejoin="round" style="fill: transparent;" stroke="currentColor" stroke-width="4" points="10,10,140,10,190,10,190,90,140,90,10,90,60,50"></polygon><line stroke="currentColor" stroke-width="4" x1="0" y1="50" x2="60" y2="50"></line></svg><text stroke="currentColor" x="0" y="1rem" font-size="1rem">500 Error</text><svg height="55" width="80" x="60" y="47.5" viewBox="0,0,24,24" stroke-width="1.5" stroke="currentColor" fill="none"><path stroke-linecap="round" stroke-linejoin="round" d="M20.25,6.375c0,2.278-3.694,4.125-8.25,4.125S3.75,8.653,3.75,6.375m16.5,0c0-2.278-3.694-4.125-8.25-4.125S3.75,4.097,3.75,6.375m16.5,0v11.25c0,2.278-3.694,4.125-8.25,4.125s-8.25-1.847-8.25-4.125V6.375m16.5,0v3.75m-16.5-3.75v3.75m16.5,0v3.75C20.25,16.153,16.556,18,12,18s-8.25-1.847-8.25-4.125v-3.75m16.5,0c0,2.278-3.694,4.125-8.25,4.125s-8.25-1.847-8.25-4.125"></path></svg></svg><svg viewBox="0,0,200,150" x="2810" y="170" height="150" width="200"><svg width="200" viewBox="0,0,200,100"><polygon stroke-linejoin="round" style="fill: transparent;" stroke="currentColor" stroke-width="4" points="10,10,140,10,190,10,190,90,140,90,10,90,60,50"></polygon><line stroke="currentColor" stroke-width="4" x1="0" y1="50" x2="60" y2="50"></line></svg><text stroke="currentColor" x="0" y="1rem" font-size="1rem">200 Response</text><svg height="55" width="80" x="60" y="47.5" viewBox="0,0,24,24" stroke-width="1.5" stroke="currentColor" fill="none"><path stroke-linecap="round" stroke-linejoin="round" d="M20.25,6.375c0,2.278-3.694,4.125-8.25,4.125S3.75,8.653,3.75,6.375m16.5,0c0-2.278-3.694-4.125-8.25-4.125S3.75,4.097,3.75,6.375m16.5,0v11.25c0,2.278-3.694,4.125-8.25,4.125s-8.25-1.847-8.25-4.125V6.375m16.5,0v3.75m-16.5-3.75v3.75m16.5,0v3.75C20.25,16.153,16.556,18,12,18s-8.25-1.847-8.25-4.125v-3.75m16.5,0c0,2.278-3.694,4.125-8.25,4.125s-8.25-1.847-8.25-4.125"></path></svg></svg><svg viewBox="0,0,200,150" x="2810" y="330" height="150" width="200"><svg width="200" viewBox="0,0,200,100"><polygon stroke-linejoin="round" style="fill: transparent;" stroke="currentColor" stroke-width="4" points="10,10,140,10,190,10,190,90,140,90,10,90,60,50"></polygon><line stroke="currentColor" stroke-width="4" x1="0" y1="50" x2="60" y2="50"></line></svg><text stroke="currentColor" x="0" y="1rem" font-size="1rem">200 Response</text><svg height="55" width="80" x="60" y="47.5" viewBox="0,0,24,24" stroke-width="1.5" stroke="currentColor" fill="none"><path stroke-linecap="round" stroke-linejoin="round" d="M20.25,6.375c0,2.278-3.694,4.125-8.25,4.125S3.75,8.653,3.75,6.375m16.5,0c0-2.278-3.694-4.125-8.25-4.125S3.75,4.097,3.75,6.375m16.5,0v11.25c0,2.278-3.694,4.125-8.25,4.125s-8.25-1.847-8.25-4.125V6.375m16.5,0v3.75m-16.5-3.75v3.75m16.5,0v3.75C20.25,16.153,16.556,18,12,18s-8.25-1.847-8.25-4.125v-3.75m16.5,0c0,2.278-3.694,4.125-8.25,4.125s-8.25-1.847-8.25-4.125"></path></svg></svg></svg>