<svg xmlns="http://www.w3.org/2000/svg" height="2450" width="3100" viewBox="0,0,3100,2450"><svg viewBox="0,0,200,150" x="50" y="450" height="750" width="1000"><svg width="200" viewBox="0,0,200,100"><polygon stroke-linejoin="round" style="fill: transparent;" stroke="currentColor" stroke-width="4" points="10,10,140,10,190,50,140,90,10,90,60,50"></polygon><line stroke="currentColor" stroke-width="4" x1="0" y1="50" x2="60" y2="50"></line><line stroke="currentColor" stroke-width="4" x1="190" y1="50" x2="200" y2="50"></line></svg><text stroke="currentColor" x="0" y="15" font-size="1rem">Router</text><svg height="55" width="80" x="60" y="47.5" viewBox="0,0,24,24" stroke-width="1.5" stroke="currentColor" fill="none"><path stroke-linecap="round" stroke-linejoin="round" d="M 5 4,H 19,V 10,H 5,V 4,M 12 10,V 14,M 5 12,H 19,M 5 12,V 14,M 19 12,V 14,M 3 14,H 7,V 18,H 3,V 14,M 10 14,H 14,V 18,H 10,V 14,M 17 14,H 21,V 18,H 17,V 14"></path></svg></svg><path stroke-width="20" stroke="currentColor" fill="none" stroke-linecap="round" stroke-linejoin="round" d="M 1050 825,H 1550,L 2050 425"></path><text stroke="currentColor" x="1050" y="815" font-size="1rem"></text><path stroke-width="20" stroke="currentColor" fill="none" stroke-linecap="round" stroke-linejoin="round" d="M 1050 825,H 1550,L 2050 1225"></path><text stroke="currentColor" x="1050" y="815" font-size="1rem"></text><path stroke-width="20" stroke="currentColor" fill="none" stroke-linecap="round" stroke-linejoin="round" d="M 1050 825,H 1550,L 2050 2025"></path><text stroke="currentColor" x="1050" y="815" font-size="1rem"></text><svg viewBox="0,0,200,150" x="50" y="1250" height="750" width="1000"><svg width="200" viewBox="0,0,200,100"><polygon stroke-linejoin="round" style="fill: transparent;" stroke="currentColor" stroke-width="4" points="10,10,140,10,190,10,190,90,140,90,10,90,60,50"></polygon><line stroke="currentColor" stroke-width="4" x1="0" y1="50" x2="60" y2="50"></line></svg><text stroke="currentColor" x="0" y="15" font-size="1rem">401 Error</text><svg height="55" width="80" x="60" y="47.5" viewBox="0,0,24,24" stroke-width="1.5" stroke="currentColor" fill="none"><path stroke-linecap="round" stroke-linejoin="round" d="M7.5,21,3,16.5m0,0L7.5,12M3,16.5h13.5m0-13.5L21,7.5m0,0L16.5,12M21,7.5H7.5"></path></svg></svg><svg viewBox="0,0,200,150" x="2050" y="50" height="750" width="1000"><svg width="200" viewBox="0,0,200,100"><line stroke="currentColor" stroke-width="4" x1="60" y1="50" x2="190" y2="50"></line><line stroke="currentColor" stroke-width="4" x1="0" y1="50" x2="60" y2="50"></line><line stroke="currentColor" stroke-width="4" x1="190" y1="50" x2="200" y2="50"></line></svg><text stroke="currentColor" x="0" y="15" font-size="1rem">/patients</text><svg height="55" width="80" x="60" y="47.5" viewBox="0,0,24,24" stroke-width="1.5" stroke="currentColor"></svg></svg><path stroke-width="20" stroke="currentColor" fill="none" stroke-linecap="round" stroke-linejoin="round" d="M 3050 425,H 3550,L 4050 425"></path><text stroke="currentColor" x="3050" y="415" font-size="1rem"></text><svg viewBox="0,0,200,150" x="2050" y="850" height="750" width="1000"><svg width="200" viewBox="0,0,200,100"><line stroke="currentColor" stroke-width="4" x1="60" y1="50" x2="190" y2="50"></line><line stroke="currentColor" stroke-width="4" x1="0" y1="50" x2="60" y2="50"></line><line stroke="currentColor" stroke-width="4" x1="190" y1="50" x2="200" y2="50"></line></svg><text stroke="currentColor" x="0" y="15" font-size="1rem">/patients/{id}</text><svg height="55" width="80" x="60" y="47.5" viewBox="0,0,24,24" stroke-width="1.5" stroke="currentColor"></svg></svg><path stroke-width="20" stroke="currentColor" fill="none" stroke-linecap="round" stroke-linejoin="round" d="M 3050 1225,H 3550,L 4050 1225"></path><text stroke="currentColor" x="3050" y="1215" font-size="1rem"></text><svg viewBox="0,0,200,150" x="2050" y="1650" height="750" width="1000"><svg width="200" viewBox="0,0,200,100"><line stroke="currentColor" stroke-width="4" x1="60" y1="50" x2="190" y2="50"></line><line stroke="currentColor" stroke-width="4" x1="0" y1="50" x2="60" y2="50"></line><line stroke="currentColor" stroke-width="4" x1="190" y1="50" x2="200" y2="50"></line></svg><text stroke="currentColor" x="0" y="15" font-size="1rem"></text><svg height="55" width="80" x="60" y="47.5" viewBox="0,0,24,24" stroke-width="1.5" stroke="currentColor"></svg></svg><path stroke-width="20" stroke="currentColor" fill="none" stroke-linecap="round" stroke-linejoin="round" d="M 3050 2025,H 3550,L 4050 2025"></path><text stroke="currentColor" x="3050" y="2015" font-size="1rem"></text></svg>